<?xml version="1.0" encoding="UTF-8" standalone="no"?>
<!-- Generator: Adobe Illustrator 19.0.0, SVG Export Plug-In . SVG Version: 6.00 Build 0)  -->

<svg
   version="1.1"
   id="Layer_1"
   x="0px"
   y="0px"
   viewBox="0 0 512 512"
   style="enable-background:new 0 0 512 512;"
   xml:space="preserve"
   sodipodi:docname="add-plus-svgrepo-com.svg"
   inkscape:version="1.2 (dc2aeda, 2022-05-15)"
   xmlns:inkscape="http://www.inkscape.org/namespaces/inkscape"
   xmlns:sodipodi="http://sodipodi.sourceforge.net/DTD/sodipodi-0.dtd"
   xmlns="http://www.w3.org/2000/svg"
   xmlns:svg="http://www.w3.org/2000/svg"><defs
   id="defs177" /><sodipodi:namedview
   id="namedview175"
   pagecolor="#ffffff"
   bordercolor="#000000"
   borderopacity="0.25"
   inkscape:showpageshadow="2"
   inkscape:pageopacity="0.0"
   inkscape:pagecheckerboard="0"
   inkscape:deskcolor="#d1d1d1"
   showgrid="false"
   inkscape:zoom="1.3272063"
   inkscape:cx="194.77002"
   inkscape:cy="503.6896"
   inkscape:window-width="1390"
   inkscape:window-height="1111"
   inkscape:window-x="572"
   inkscape:window-y="594"
   inkscape:window-maximized="0"
   inkscape:current-layer="Layer_1" />
<g
   id="g136"
   style="stroke:#000000;stroke-opacity:0;fill:#959595;fill-opacity:0">
	<g
   id="g134"
   style="stroke:#000000;stroke-opacity:0;fill:#959595;fill-opacity:0">
		<path
   d="M256,0C114.84,0,0,114.842,0,256s114.84,256,256,256s256-114.842,256-256S397.16,0,256,0z M256,462.452    c-113.837,0-206.452-92.614-206.452-206.452S142.163,49.548,256,49.548S462.452,142.163,462.452,256S369.837,462.452,256,462.452z    "
   id="path132"
   style="stroke:#000000;stroke-opacity:0;fill:#959595;fill-opacity:0" />
	</g>
</g>
<g
   id="g142"
   style="fill:#ffffff;fill-opacity:1;stroke:#f3f3f3;stroke-opacity:1">
	<g
   id="g140"
   style="fill:#ffffff;fill-opacity:1;stroke:#f3f3f3;stroke-opacity:1">
		<polygon
   points="280.774,231.226 280.774,140.387 231.226,140.387 231.226,231.226 140.387,231.226 140.387,280.774     231.226,280.774 231.226,371.613 280.774,371.613 280.774,280.774 371.613,280.774 371.613,231.226   "
   id="polygon138"
   style="fill:#ffffff;fill-opacity:1;stroke:#f3f3f3;stroke-opacity:1" />
	</g>
</g>
<g
   id="g144">
</g>
<g
   id="g146">
</g>
<g
   id="g148">
</g>
<g
   id="g150">
</g>
<g
   id="g152">
</g>
<g
   id="g154">
</g>
<g
   id="g156">
</g>
<g
   id="g158">
</g>
<g
   id="g160">
</g>
<g
   id="g162">
</g>
<g
   id="g164">
</g>
<g
   id="g166">
</g>
<g
   id="g168">
</g>
<g
   id="g170">
</g>
<g
   id="g172">
</g>
</svg>
