<?xml version="1.0" encoding="UTF-8" standalone="no"?>
<!-- Generator: Adobe Illustrator 19.0.0, SVG Export Plug-In . SVG Version: 6.00 Build 0)  -->

<svg
   version="1.1"
   id="Layer_1"
   x="0px"
   y="0px"
   viewBox="0 0 490 490"
   style="enable-background:new 0 0 490 490;"
   xml:space="preserve"
   sodipodi:docname="facebook-svgrepo-com.svg"
   inkscape:version="1.2 (dc2aeda, 2022-05-15)"
   xmlns:inkscape="http://www.inkscape.org/namespaces/inkscape"
   xmlns:sodipodi="http://sodipodi.sourceforge.net/DTD/sodipodi-0.dtd"
   xmlns="http://www.w3.org/2000/svg"
   xmlns:svg="http://www.w3.org/2000/svg"><defs
   id="defs1377" /><sodipodi:namedview
   id="namedview1375"
   pagecolor="#ffffff"
   bordercolor="#000000"
   borderopacity="0.25"
   inkscape:showpageshadow="2"
   inkscape:pageopacity="0.0"
   inkscape:pagecheckerboard="0"
   inkscape:deskcolor="#d1d1d1"
   showgrid="false"
   inkscape:zoom="0.69772679"
   inkscape:cx="250.09789"
   inkscape:cy="247.23144"
   inkscape:window-width="1390"
   inkscape:window-height="1117"
   inkscape:window-x="0"
   inkscape:window-y="25"
   inkscape:window-maximized="0"
   inkscape:current-layer="Layer_1" />
<g
   id="XMLID_21_"
   style="fill:#ffffff;fill-opacity:1">
	<g
   id="g1341"
   style="fill:#ffffff;fill-opacity:1">
		<g
   id="g1339"
   style="fill:#ffffff;fill-opacity:1">
			<path
   d="M460,0H30C13.458,0,0,13.458,0,30v430c0,16.542,13.458,30,30,30h430c16.542,0,30-13.458,30-30V30     C490,13.458,476.542,0,460,0z M470,460c0,5.514-4.486,10-10,10H30c-5.514,0-10-4.486-10-10V30c0-5.514,4.486-10,10-10h430     c5.514,0,10,4.486,10,10V460z"
   id="path1335"
   style="fill:#ffffff;fill-opacity:1" />
			<path
   d="M345,180h-50v-49.965c0.076-0.015,0.151-0.027,0.219-0.035H335c5.523,0,10-4.477,10-10V50c0-5.522-4.477-10-10-10h-60     c-41.268,0-60.95,22.039-70.194,40.528C195.111,99.916,195,119.189,195,120v60h-50c-5.523,0-10,4.477-10,10v80     c0,5.523,4.477,10,10,10h40v155c0,5.523,4.477,10,10,10h90c5.523,0,10-4.477,10-10V270h40c4.977,0,9.196-3.659,9.899-8.586l10-70     c0.41-2.87-0.445-5.776-2.345-7.966C350.655,181.258,347.899,180,345,180z M326.327,250H285c-5.523,0-10,4.477-10,10v165h-70V270     c0-5.522-4.477-10-10-10h-40v-60h50c5.523,0,10-4.477,10-10v-69.969c0.001-0.158,0.189-15.92,7.977-31.119     C232.81,69.728,250.313,60,275,60h50v50h-30c-9.695,0-20,7.009-20,20v60c0,5.523,4.477,10,10,10h48.47L326.327,250z"
   id="path1337"
   style="fill:#ffffff;fill-opacity:1" />
		</g>
	</g>
</g>
<g
   id="g1344">
</g>
<g
   id="g1346">
</g>
<g
   id="g1348">
</g>
<g
   id="g1350">
</g>
<g
   id="g1352">
</g>
<g
   id="g1354">
</g>
<g
   id="g1356">
</g>
<g
   id="g1358">
</g>
<g
   id="g1360">
</g>
<g
   id="g1362">
</g>
<g
   id="g1364">
</g>
<g
   id="g1366">
</g>
<g
   id="g1368">
</g>
<g
   id="g1370">
</g>
<g
   id="g1372">
</g>
</svg>
