<?xml version="1.0" encoding="UTF-8" standalone="no"?>
<!-- Generator: Adobe Illustrator 19.0.0, SVG Export Plug-In . SVG Version: 6.00 Build 0)  -->

<svg
   version="1.1"
   id="Layer_1"
   x="0px"
   y="0px"
   viewBox="0 0 490 490"
   style="enable-background:new 0 0 490 490;"
   xml:space="preserve"
   sodipodi:docname="instagram-svgrepo-com.svg"
   inkscape:version="1.2 (dc2aeda, 2022-05-15)"
   xmlns:inkscape="http://www.inkscape.org/namespaces/inkscape"
   xmlns:sodipodi="http://sodipodi.sourceforge.net/DTD/sodipodi-0.dtd"
   xmlns="http://www.w3.org/2000/svg"
   xmlns:svg="http://www.w3.org/2000/svg"><defs
   id="defs181" /><sodipodi:namedview
   id="namedview179"
   pagecolor="#ffffff"
   bordercolor="#000000"
   borderopacity="0.25"
   inkscape:showpageshadow="2"
   inkscape:pageopacity="0.0"
   inkscape:pagecheckerboard="0"
   inkscape:deskcolor="#d1d1d1"
   showgrid="false"
   inkscape:zoom="0.69772679"
   inkscape:cx="247.23144"
   inkscape:cy="247.23144"
   inkscape:window-width="1390"
   inkscape:window-height="1117"
   inkscape:window-x="0"
   inkscape:window-y="25"
   inkscape:window-maximized="0"
   inkscape:current-layer="Layer_1" />
<g
   id="g146"
   style="fill:#ffffff;fill-opacity:1">
	<g
   id="g144"
   style="fill:#ffffff;fill-opacity:1">
		<g
   id="g142"
   style="fill:#ffffff;fill-opacity:1">
			<path
   d="M245,135c-60.654,0-110,49.346-110,110s49.346,110,110,110s110-49.346,110-110S305.654,135,245,135z M245,335     c-49.626,0-90-40.374-90-90c0-49.626,40.374-90,90-90c49.626,0,90,40.374,90,90C335,294.626,294.626,335,245,335z"
   id="path132"
   style="fill:#ffffff;fill-opacity:1" />
			<path
   d="M355,90c-19.299,0-35,15.701-35,35s15.701,35,35,35s35-15.701,35-35S374.299,90,355,90z M355,140     c-8.272,0-15-6.729-15-15s6.728-15,15-15c8.272,0,15,6.729,15,15S363.272,140,355,140z"
   id="path134"
   style="fill:#ffffff;fill-opacity:1" />
			<path
   d="M245,175c-38.598,0-70,31.402-70,70c0,38.598,31.402,70,70,70c38.598,0,70-31.402,70-70C315,206.402,283.598,175,245,175     z M245,295c-27.57,0-50-22.43-50-50s22.43-50,50-50s50,22.43,50,50S272.57,295,245,295z"
   id="path136"
   style="fill:#ffffff;fill-opacity:1" />
			<path
   d="M340,45H150C94.86,45,50,89.86,50,145v195c0,55.14,44.86,100,100,100h190c55.141,0,100-44.86,100-100V145     C440,89.86,395.141,45,340,45z M420,340c0,44.112-35.888,80-80,80H150c-44.112,0-80-35.888-80-80V145c0-44.112,35.888-80,80-80     h190c44.112,0,80,35.888,80,80V340z"
   id="path138"
   style="fill:#ffffff;fill-opacity:1" />
			<path
   d="M390,0H100C44.86,0,0,44.86,0,100v290c0,55.14,44.86,100,100,100h290c55.141,0,100-44.86,100-100V100     C490,44.86,445.141,0,390,0z M470,390c0,44.112-35.888,80-80,80H100c-44.112,0-80-35.888-80-80V100c0-44.112,35.888-80,80-80h290     c44.112,0,80,35.888,80,80V390z"
   id="path140"
   style="fill:#ffffff;fill-opacity:1" />
		</g>
	</g>
</g>
<g
   id="g148">
</g>
<g
   id="g150">
</g>
<g
   id="g152">
</g>
<g
   id="g154">
</g>
<g
   id="g156">
</g>
<g
   id="g158">
</g>
<g
   id="g160">
</g>
<g
   id="g162">
</g>
<g
   id="g164">
</g>
<g
   id="g166">
</g>
<g
   id="g168">
</g>
<g
   id="g170">
</g>
<g
   id="g172">
</g>
<g
   id="g174">
</g>
<g
   id="g176">
</g>
</svg>
