<?xml version="1.0" encoding="UTF-8" standalone="no"?>
<!-- Generator: Adobe Illustrator 18.0.0, SVG Export Plug-In . SVG Version: 6.00 Build 0)  -->

<svg
   version="1.1"
   id="Capa_1"
   x="0px"
   y="0px"
   viewBox="0 0 35.000001 30"
   xml:space="preserve"
   sodipodi:docname="pointer.svg"
   width="35"
   height="30"
   inkscape:version="1.2 (dc2aeda, 2022-05-15)"
   xmlns:inkscape="http://www.inkscape.org/namespaces/inkscape"
   xmlns:sodipodi="http://sodipodi.sourceforge.net/DTD/sodipodi-0.dtd"
   xmlns="http://www.w3.org/2000/svg"
   xmlns:svg="http://www.w3.org/2000/svg"><defs
   id="defs943" /><sodipodi:namedview
   id="namedview941"
   pagecolor="#ffffff"
   bordercolor="#000000"
   borderopacity="0.25"
   inkscape:showpageshadow="2"
   inkscape:pageopacity="0.0"
   inkscape:pagecheckerboard="0"
   inkscape:deskcolor="#d1d1d1"
   showgrid="false"
   inkscape:zoom="4.7321487"
   inkscape:cx="30.324491"
   inkscape:cy="79.773486"
   inkscape:window-width="1390"
   inkscape:window-height="1111"
   inkscape:window-x="0"
   inkscape:window-y="25"
   inkscape:window-maximized="0"
   inkscape:current-layer="Capa_1" />
<path
   d="m 24.230087,4.7027503 -0.214779,-0.198525 c -1.279909,-1.183047 -3.2836,-1.104147 -4.466551,0.175658 -0.26718,0.289056 -0.469375,0.61522 -0.608596,0.960379 -1.256769,-0.758978 -2.91937,-0.558394 -3.954143,0.5611 -0.281006,0.304013 -0.489918,0.649031 -0.629253,1.013978 -1.234304,-0.619992 -2.835416,-0.370034 -3.826422,0.70211 -0.266798,0.288643 -0.468251,0.618555 -0.6064332,0.969837 L 7.1369337,6.3112253 C 5.8570251,5.1281783 3.8533339,5.2070783 2.6703819,6.4868843 1.4874306,7.7666893 1.5661313,9.7703883 2.8460399,10.953435 l 6.8352918,6.318006 c -0.8942933,-0.07329 -1.7979421,-0.0028 -2.5550413,0.34881 -0.8447642,0.392391 -1.4291229,1.086889 -1.6900023,2.008839 -0.4796705,1.695716 0.4943552,3.47791 2.1713917,3.973026 l 8.5001722,2.510135 c 0.235434,0.06649 5.802327,1.58873 9.072178,-1.94884 l 3.814126,-4.126407 c 3.00744,-3.253673 2.793193,-8.360201 -0.478223,-11.3840407 l -4.283139,-3.953141 z m 3.216762,13.9038527 -3.814127,4.126407 c -2.355414,2.548264 -6.787422,1.395536 -6.949487,1.351906 L 8.2044903,21.581197 C 7.6194292,21.408468 7.294208,20.80292 7.4640454,20.202569 7.5575974,19.871631 7.7270153,19.664954 8.0128528,19.531836 9.1527015,19.00129 11.615631,19.722775 12.899423,20.30185 l 0.978643,0.443555 0.758127,-1.763729 L 4.2764333,9.4059283 C 3.8497627,9.0115473 3.8234998,8.3437483 4.2178807,7.9170783 4.6122616,7.4904073 5.2800604,7.4641443 5.706731,7.8585253 l 8.923356,8.2480497 0.01297,-0.01403 1.41733,-1.533374 0.01297,-0.01403 -3.920087,-3.62342 c -0.431932,-0.399244 -0.467898,-1.1494697 -0.07543,-1.5740767 0.406396,-0.439669 1.124402,-0.491069 1.536527,-0.110133 l 1.547403,1.4302977 2.682164,2.479181 1.430299,-1.547403 -2.682164,-2.4791817 c -0.426671,-0.394381 -0.452934,-1.06218 -0.05855,-1.488851 0.39438,-0.42667 1.062179,-0.452932 1.48885,-0.05855 l 1.702143,1.573327 1.702142,1.5733267 1.430298,-1.5474027 -1.702142,-1.573327 c -0.42667,-0.39438 -0.452933,-1.06218 -0.05855,-1.488851 0.39438,-0.42667 1.06218,-0.452933 1.48885,-0.05855 l 1.106599,1.022853 0.0033,-0.0036 3.391394,3.1299727 c 2.417464,2.234705 2.579082,6.00554 0.360404,8.405871 z"
   id="path908"
   style="stroke-width:0.140479" />
<g
   id="g910">
</g>
<g
   id="g912">
</g>
<g
   id="g914">
</g>
<g
   id="g916">
</g>
<g
   id="g918">
</g>
<g
   id="g920">
</g>
<g
   id="g922">
</g>
<g
   id="g924">
</g>
<g
   id="g926">
</g>
<g
   id="g928">
</g>
<g
   id="g930">
</g>
<g
   id="g932">
</g>
<g
   id="g934">
</g>
<g
   id="g936">
</g>
<g
   id="g938">
</g>
</svg>
