<?xml version="1.0" encoding="UTF-8" standalone="no"?>
<!-- Created with Inkscape (http://www.inkscape.org/) -->

<svg
   width="52.724998mm"
   height="17.900999mm"
   viewBox="0 0 52.724998 17.900999"
   version="1.1"
   id="svg5"
   xml:space="preserve"
   inkscape:version="1.2 (dc2aeda, 2022-05-15)"
   sodipodi:docname="googleappke.svg"
   xmlns:inkscape="http://www.inkscape.org/namespaces/inkscape"
   xmlns:sodipodi="http://sodipodi.sourceforge.net/DTD/sodipodi-0.dtd"
   xmlns="http://www.w3.org/2000/svg"
   xmlns:svg="http://www.w3.org/2000/svg"><sodipodi:namedview
     id="namedview7"
     pagecolor="#ffffff"
     bordercolor="#000000"
     borderopacity="0.25"
     inkscape:showpageshadow="2"
     inkscape:pageopacity="0.0"
     inkscape:pagecheckerboard="0"
     inkscape:deskcolor="#d1d1d1"
     inkscape:document-units="mm"
     showgrid="false"
     inkscape:zoom="1.210722"
     inkscape:cx="27.669441"
     inkscape:cy="231.26697"
     inkscape:window-width="2240"
     inkscape:window-height="840"
     inkscape:window-x="133"
     inkscape:window-y="722"
     inkscape:window-maximized="0"
     inkscape:current-layer="g2914" /><defs
     id="defs2"><clipPath
       clipPathUnits="userSpaceOnUse"
       id="clipPath911"><rect
         style="fill:#b3b3b3;fill-opacity:0;stroke:#000000;stroke-width:0.264583;stroke-opacity:0.778802"
         id="rect913"
         width="162.71875"
         height="103.71667"
         x="25.820681"
         y="155.7077" /></clipPath><clipPath
       clipPathUnits="userSpaceOnUse"
       id="clipPath1009"><rect
         style="fill:#b3b3b3;fill-opacity:0;stroke:#000000;stroke-width:0.264583;stroke-opacity:0.778802"
         id="rect1011"
         width="142.08125"
         height="90.548355"
         x="-13.286617"
         y="303.73969" /></clipPath><clipPath
       clipPathUnits="userSpaceOnUse"
       id="clipPath1043"><rect
         style="fill:#b3b3b3;fill-opacity:0;stroke:#000000;stroke-width:0.264583;stroke-opacity:0.778802"
         id="rect1045"
         width="186.62762"
         height="153.66655"
         x="-37.587765"
         y="408.83871" /></clipPath><path
       id="prefix__a"
       d="M 0,0 H 52.8 V 9.301 H 0 Z" /><path
       id="prefix__c"
       d="M 0,0.532 H 15.556 V 30.524 H 0 Z" /><path
       id="prefix__e"
       d="M 0.644,0.056 H 20.542 V 15.441 H 0.644 Z" /></defs><g
     inkscape:label="Capa 1"
     inkscape:groupmode="layer"
     id="layer1"><g
       id="g2167"
       transform="translate(50.684703,-573.13893)"><g
         id="g2914"
         transform="matrix(1.3824913,0,0,1.3824913,-0.77433285,-226.12412)"
         style="stroke-width:0.723331"><path
           d="m -34.410972,587.44108 h 3.756732 v -5.54936 h -3.756732 z m 1.878365,1.221 c -0.274233,0 -0.496548,-0.21965 -0.496548,-0.49122 0,-0.27103 0.222315,-0.49069 0.496548,-0.49069 0.274235,0 0.496816,0.21966 0.496816,0.49069 0,0.27157 -0.222317,0.49122 -0.496816,0.49122 z m 1.718353,-8.45677 h -3.436704 c -0.411618,0 -0.745756,0.32986 -0.745756,0.73749 v 7.52306 c 0,0.40734 0.334138,0.73751 0.745756,0.73751 h 3.436971 c 0.412148,0 0.746286,-0.33017 0.746286,-0.73751 v -7.52332 c -2.65e-4,-0.40708 -0.334404,-0.73723 -0.746553,-0.73723 z m 4.143056,1.19371 -0.19995,-0.57241 c -0.04155,-0.12967 -0.0719,-0.24735 -0.101449,-0.36237 h -0.0088 c -0.02664,0.11502 -0.05965,0.2391 -0.09852,0.3597 l -0.197025,0.57508 z m -0.659491,0.2005 -0.209003,0.62514 h -0.268376 l 0.683453,-1.98778 h 0.313105 l 0.686383,1.98778 h -0.277161 l -0.214863,-0.62514 h -0.713272 z m 1.666699,-0.83016 0.283287,0.79927 c 0.04793,0.1326 0.08679,0.2508 0.116617,0.36824 h 0.0091 c 0.03274,-0.11744 0.07455,-0.23564 0.122202,-0.36824 l 0.280624,-0.79927 h 0.274767 l -0.567103,1.42709 h -0.251077 l -0.548734,-1.42709 z m 1.924961,0.73139 c -0.286747,-0.006 -0.611301,0.0443 -0.611301,0.32136 0,0.17118 0.113153,0.2476 0.244412,0.2476 0.190899,0 0.313107,-0.11794 0.355172,-0.23857 0.0088,-0.027 0.01172,-0.056 0.01172,-0.083 v -0.24763 z m 0.25666,0.38659 c 0,0.12352 0.0062,0.24442 0.02129,0.34184 h -0.235892 l -0.02395,-0.17997 h -0.0091 c -0.0772,0.11233 -0.235625,0.2122 -0.441701,0.2122 -0.292336,0 -0.441436,-0.2034 -0.441436,-0.41002 0,-0.34479 0.310443,-0.53356 0.867962,-0.53063 v -0.0293 c 0,-0.11796 -0.03249,-0.3336 -0.327748,-0.33015 -0.137383,0 -0.277428,0.038 -0.379402,0.10594 l -0.05965,-0.17439 c 0.119812,-0.0735 0.295534,-0.12353 0.477647,-0.12353 0.444631,0 0.551928,0.29792 0.551928,0.58386 v 0.53437 z m 0.505868,0.37246 h 0.262519 v -1.42708 h -0.262519 z m 0.124604,-1.69011 c -0.09824,0 -0.16374,-0.0763 -0.16374,-0.16775 0,-0.0914 0.06869,-0.16506 0.169862,-0.16506 0.101694,0 0.167469,0.0739 0.167469,0.16506 0,0.0914 -0.06576,0.16775 -0.169866,0.16775 z m 0.397504,1.76094 h 0.262523 v -2.09375 h -0.262523 z m 1.378091,-0.82988 c -0.286481,-0.006 -0.6121,0.0443 -0.6121,0.32136 0,0.17118 0.113689,0.2476 0.245212,0.2476 0.190899,0 0.313372,-0.11794 0.355172,-0.23857 0.009,-0.027 0.01171,-0.056 0.01171,-0.083 v -0.24763 z m 0.256661,0.38659 c 0,0.12352 0.0062,0.24442 0.02129,0.34184 h -0.236162 l -0.02395,-0.17997 h -0.0088 c -0.07774,0.11233 -0.235362,0.2122 -0.44197,0.2122 -0.292072,0 -0.441437,-0.2034 -0.441437,-0.41002 0,-0.34479 0.310443,-0.53356 0.868763,-0.53063 v -0.0293 c 0,-0.11796 -0.03303,-0.3336 -0.328549,-0.33015 -0.137383,0 -0.277959,0.038 -0.378868,0.10594 l -0.05995,-0.17439 c 0.119276,-0.0735 0.295531,-0.12353 0.477646,-0.12353 0.444629,0 0.551928,0.29792 0.551928,0.58386 v 0.53437 z m 0.740697,-0.12912 c -5e-6,0.0321 0.0027,0.065 0.0093,0.0942 0.05057,0.18 0.205543,0.3038 0.393512,0.3038 0.277693,0 0.438775,-0.22099 0.438775,-0.54847 0,-0.28887 -0.149101,-0.53381 -0.429458,-0.53381 -0.179181,0 -0.346651,0.12405 -0.397505,0.3184 -0.0086,0.0326 -0.01465,0.068 -0.01465,0.1092 z m -0.262784,-1.52134 h 0.262784 v 0.89324 h 0.0062 c 0.09239,-0.15921 0.259324,-0.25959 0.492021,-0.25959 0.358369,0 0.608905,0.295 0.608905,0.72553 0,0.51306 -0.328281,0.76678 -0.650438,0.76678 -0.208736,0 -0.373011,-0.0798 -0.483236,-0.26837 h -0.0064 l -0.01465,0.23562 h -0.226576 c 0.0086,-0.0972 0.01146,-0.24174 0.01146,-0.36821 z m 1.614781,2.09375 h 0.26252 v -2.09375 h -0.26252 z m 1.790773,-0.95369 c 0.0027,-0.16241 -0.06896,-0.42199 -0.361296,-0.42199 -0.268111,0 -0.382064,0.242 -0.402833,0.42199 z m -0.767057,0.18557 c 0.0062,0.35117 0.22977,0.4955 0.492557,0.4955 0.18797,0 0.304053,-0.0324 0.399901,-0.0709 l 0.04765,0.18292 c -0.09266,0.0412 -0.253733,0.0914 -0.483504,0.0914 -0.441703,0 -0.710344,-0.29182 -0.710344,-0.71942 0,-0.43343 0.259857,-0.77264 0.680791,-0.77264 0.471254,0 0.593728,0.41002 0.593728,0.67228 0,0.0534 -0.0031,0.0944 -0.0091,0.12407 z m 2.577531,0.50428 c 0.250803,0 0.438772,-0.23298 0.438772,-0.55726 0,-0.24202 -0.122473,-0.54581 -0.432651,-0.54581 -0.307513,0 -0.441169,0.2833 -0.441169,0.55459 0,0.31283 0.178651,0.54848 0.432385,0.54848 h 0.0029 z m -0.0088,0.19436 c -0.387951,2.6e-4 -0.692538,-0.28248 -0.692538,-0.73378 0,-0.47791 0.319497,-0.75801 0.716203,-0.75801 0.414811,0 0.695435,0.29792 0.695435,0.73139 0,0.53088 -0.373277,0.76066 -0.716202,0.76066 h -0.0031 z m 0.917484,-1.073 c 10e-7,-0.15067 -0.0033,-0.26836 -0.0125,-0.38657 h 0.232967 l 0.01492,0.23296 h 0.0059 c 0.0719,-0.13205 0.238821,-0.26518 0.477377,-0.26518 0.199951,0 0.511195,0.11794 0.511195,0.60758 v 0.85199 h -0.263336 v -0.82271 c 0,-0.23004 -0.08654,-0.42464 -0.33414,-0.42464 -0.170398,0 -0.304318,0.12113 -0.352511,0.26544 -0.01171,0.0321 -0.01758,0.0798 -0.01758,0.12086 v 0.8613 h -0.262218 z m 2.597762,-0.68503 v 0.34212 h 0.375408 v 0.19756 h -0.3754 v 0.76946 c 0,0.17678 0.05057,0.27741 0.196757,0.27741 0.0719,0 0.113687,-0.006 0.152292,-0.0181 l 0.01172,0.19754 c -0.05057,0.0178 -0.130993,0.0355 -0.232433,0.0355 -0.122474,0 -0.220983,-0.0412 -0.283817,-0.10862 -0.07136,-0.0799 -0.101449,-0.20687 -0.101449,-0.37461 v -0.77851 h -0.223381 v -0.19754 h 0.223381 v -0.26279 z m 0.584646,-0.26624 h 0.262785 v 0.89032 h 0.0056 c 0.0418,-0.0739 0.107293,-0.14112 0.188237,-0.18264 0.0772,-0.0471 0.169864,-0.0738 0.268908,-0.0738 0.193825,0 0.5037366,0.11794 0.5037366,0.61049 v 0.84933 h -0.2622946 v -0.82005 c 0,-0.23296 -0.08679,-0.42439 -0.334407,-0.42439 -0.170397,0 -0.30139,0.11796 -0.351977,0.25907 -0.01518,0.0355 -0.01784,0.074 -0.01784,0.12407 v 0.8613 h -0.262781 z m 2.6182646,1.14006 c 0.0027,-0.16241 -0.06894,-0.42199 -0.361296,-0.42199 -0.268376,0 -0.38233,0.242 -0.402831,0.42199 z m -0.767055,0.18557 c 0.0062,0.35117 0.229771,0.4955 0.492555,0.4955 0.187703,0 0.304054,-0.0324 0.399903,-0.0709 l 0.04765,0.18292 c -0.09293,0.0412 -0.253733,0.0914 -0.483769,0.0914 -0.441702,0 -0.710077,-0.29182 -0.710077,-0.71942 0,-0.43343 0.259855,-0.77264 0.680524,-0.77264 0.471254,0 0.593728,0.41002 0.593728,0.67228 0,0.0534 -0.0027,0.0944 -0.0088,0.12407 z m 1.915374,0.69729 h 0.26254 v -1.42708 h -0.262521 z m 0.125669,-1.69011 c -0.09878,0 -0.164807,-0.0763 -0.164807,-0.16775 0,-0.0914 0.0687,-0.16506 0.170398,-0.16506 0.101449,0 0.167203,0.0739 0.167203,0.16506 0,0.0914 -0.06576,0.16775 -0.170398,0.16775 h -0.0027 z m 0.893789,0.66373 c 0.05672,0.015 0.131524,0.0207 0.21486,0.0207 0.316301,0 0.50427,-0.1531 0.50427,-0.42148 0,-0.26516 -0.187969,-0.39192 -0.474451,-0.39192 -0.113155,0 -0.199684,0.0113 -0.244947,0.0206 v 0.77237 z m -0.259857,-0.95554 c 0.125401,-0.0232 0.289676,-0.041 0.498413,-0.041 0.256661,0 0.444632,0.0586 0.563908,0.16531 0.110761,0.0939 0.179185,0.23885 0.179185,0.4159 0,0.17943 -0.05379,0.3211 -0.15815,0.42411 -0.137119,0.14485 -0.361297,0.21833 -0.614497,0.21833 -0.07748,0 -0.149098,-0.003 -0.209002,-0.0176 v 0.79605 h -0.259819 z m 1.597477,-0.041 h 0.262784 v 0.89033 h 0.0059 c 0.0418,-0.0739 0.107568,-0.14114 0.18797,-0.18265 0.07774,-0.0471 0.170398,-0.0737 0.268908,-0.0737 0.193828,0 0.504004,0.11795 0.504004,0.6105 v 0.84932 h -0.262449 v -0.82004 c 0,-0.23297 -0.08678,-0.42441 -0.334405,-0.42441 -0.169866,0 -0.301125,0.11796 -0.351977,0.25907 -0.01517,0.0355 -0.01784,0.074 -0.01784,0.12408 v 0.8613 h -0.262784 z m 2.032788,1.82989 c 0.250272,0 0.438774,-0.23296 0.438774,-0.55725 0,-0.24202 -0.122205,-0.5458 -0.432916,-0.5458 -0.307248,0 -0.441968,0.2833 -0.441968,0.55459 0,0.31284 0.179184,0.54846 0.432915,0.54846 z m -0.0088,0.19437 c -0.388185,0 -0.692772,-0.28275 -0.692772,-0.73402 0,-0.47767 0.319495,-0.75775 0.716202,-0.75775 0.414813,0 0.695436,0.29793 0.695436,0.73137 0,0.53091 -0.37301,0.76067 -0.716203,0.76067 h -0.0027 z m 1.182666,-1.07298 c -1e-6,-0.15069 -0.0031,-0.26838 -0.01172,-0.38658 h 0.232699 l 0.01492,0.23296 h 0.0062 c 0.0719,-0.13234 0.238824,-0.26517 0.477379,-0.26517 0.199952,0 0.510127,0.11794 0.510127,0.60755 v 0.85201 h -0.262595 v -0.82276 c 0,-0.23003 -0.08678,-0.42464 -0.334406,-0.42464 -0.169864,0 -0.304321,0.12115 -0.351977,0.26545 -0.01198,0.0321 -0.0181,0.0798 -0.0181,0.12086 v 0.86131 h -0.26247 z m 2.60655,0.18876 c 0.0027,-0.1624 -0.06896,-0.42199 -0.361294,-0.42199 -0.268911,0 -0.382067,0.24202 -0.40283,0.42199 z m -0.767054,0.1856 c 0.0062,0.35116 0.229771,0.49548 0.492556,0.49548 0.187703,0 0.304052,-0.0324 0.399901,-0.0708 l 0.04765,0.18291 c -0.09292,0.0413 -0.253732,0.0914 -0.483504,0.0914 -0.441699,0 -0.710342,-0.29182 -0.710342,-0.71942 0,-0.43346 0.259856,-0.77264 0.680257,-0.77264 0.471525,0 0.59373,0.41001 0.59373,0.67227 0,0.0534 -0.0027,0.0944 -0.0086,0.12407 z m -25.7543246,2.95009 c 0.05991,0.22976 0.124336,0.46803 0.207138,0.72576 l 0.476582,1.36504 h -1.356785 l 0.470191,-1.37355 c 0.07136,-0.22284 0.139513,-0.46328 0.202879,-0.71725 z m -0.419604,-0.84614 -1.769473,5.14653 h 0.810188 l 0.52823,-1.58018 h 1.71303 l 0.543143,1.58018 h 0.833083 l -1.777457,-5.14653 z m 4.831834,1.97581 c 0.70209,0 1.016793,0.64326 1.016793,1.28036 0,0.82165 -0.401232,1.33232 -1.046879,1.33232 -0.440636,0 -0.822168,-0.29635 -0.9284,-0.72261 -0.01809,-0.066 -0.02795,-0.15335 -0.02795,-0.25187 v -0.62675 c 0,-0.0565 0.01278,-0.12538 0.02502,-0.1922 0.0041,-0.0213 0.008,-0.0424 0.01146,-0.0632 0.117146,-0.44542 0.507731,-0.75612 0.949965,-0.75612 m 0.195955,-0.64458 c -0.536487,0 -0.966472,0.20445 -1.252688,0.59372 l -0.03115,-0.51173 h -0.720978 l 0.0043,0.0652 c 0.02102,0.31923 0.03035,0.67015 0.03035,1.17414 v 3.96708 h 0.787823 v -1.85149 c 0.244413,0.28914 0.634729,0.45715 1.077231,0.45715 0.460605,0 0.885003,-0.17837 1.194114,-0.50134 0.345053,-0.36048 0.527167,-0.87861 0.527167,-1.49763 0,-0.54742 -0.157884,-1.02025 -0.457944,-1.36772 -0.293366,-0.34025 -0.704185,-0.52741 -1.158134,-0.52741 m 3.797736,0.64458 c 0.702089,0 1.016261,0.64323 1.016261,1.28037 0,0.82163 -0.401232,1.33231 -1.046349,1.33231 -0.440902,0 -0.822699,-0.29635 -0.928663,-0.72261 -0.01812,-0.066 -0.02768,-0.15336 -0.02768,-0.25188 v -0.62673 c 0,-0.0568 0.01278,-0.1262 0.02502,-0.19276 l 0.01172,-0.0628 c 0.116619,-0.44544 0.506938,-0.75614 0.949705,-0.75614 m 0.195956,-0.64458 c -0.536485,0 -0.966471,0.20448 -1.252955,0.59372 l -0.03141,-0.51171 h -0.72046 l 0.0037,0.0652 c 0.02129,0.31951 0.03062,0.67015 0.03062,1.17414 v 3.96707 h 0.78809 v -1.85147 c 0.244412,0.28914 0.634731,0.45716 1.076964,0.45716 0.460608,0 0.885001,-0.1784 1.194647,-0.50135 0.344523,-0.3605 0.527168,-0.87861 0.527168,-1.49764 0,-0.54742 -0.158949,-1.02024 -0.458476,-1.36771 -0.293403,-0.34024 -0.704486,-0.52742 -1.157904,-0.52742 m 5.19606,0.93158 c -0.735372,-0.2814 -0.971,-0.50266 -0.971,-0.91189 0,-0.34424 0.276896,-0.69144 0.895651,-0.69144 0.510395,0 0.837079,0.17573 0.925206,0.22954 l 0.06655,0.0408 0.222582,-0.64993 -0.0442,-0.0252 c -0.131791,-0.0763 -0.507999,-0.25451 -1.147521,-0.25451 -1.00508,0 -1.706638,0.58625 -1.706638,1.42547 0,0.67681 0.439306,1.14964 1.383149,1.48858 0.668543,0.24709 0.917484,0.50028 0.917484,0.93399 0,0.4907 -0.383926,0.79554 -1.001351,0.79554 -0.402564,0 -0.816577,-0.11608 -1.135808,-0.31841 l -0.0687,-0.0434 -0.211401,0.66507 0.0386,0.0256 c 0.297664,0.19596 0.857581,0.33813 1.331763,0.33813 1.354663,0 1.834968,-0.81576 1.834968,-1.51492 0,-0.7202 -0.385258,-1.16457 -1.329364,-1.53279 m 2.6576656,-1.73033 -0.772914,0.23962 v 0.64698 h -0.5657706 v 0.62247 h 0.5657706 v 1.90632 c 0,0.46063 0.0892,0.78384 0.273168,0.98778 0.17599,0.19117 0.446761,0.29606 0.762264,0.29606 0.297663,0 0.509593,-0.0582 0.609171,-0.0932 l 0.0442,-0.0154 -0.0378,-0.62354 -0.07561,0.0229 c -0.09986,0.0301 -0.202349,0.0417 -0.366623,0.0417 -0.305384,0 -0.435844,-0.19091 -0.435844,-0.63898 v -1.88398 h 0.950498 v -0.62247 h -0.950497 z m 2.907138,1.41323 c 0.709016,0 1.031706,0.6832 1.031706,1.31794 0,0.7806 -0.440371,1.34719 -1.046616,1.34719 h -0.0075 c -0.597721,0 -1.031436,-0.55697 -1.031436,-1.32484 0,-0.66695 0.325619,-1.34029 1.053802,-1.34029 m 0.02289,-0.61449 c -1.103057,0 -1.872507,0.81285 -1.872507,1.97687 0,1.12917 0.744955,1.91723 1.812069,1.91723 h 0.0072 c 0.902574,0 1.872776,-0.62088 1.872776,-1.98405 0,-0.5546 -0.173859,-1.0309 -0.502408,-1.37758 -0.330369,-0.34823 -0.785915,-0.53247 -1.317076,-0.53247 m 4.082885,0.036 -0.0474,-0.012 c -0.06923,-0.0171 -0.12593,-0.0239 -0.196221,-0.0239 -0.411882,0 -0.781964,0.23988 -0.987774,0.62701 l -0.02315,-0.54501 h -0.707159 l 0.0046,0.0652 c 0.02129,0.30831 0.02981,0.65418 0.02981,1.12143 l -0.0075,2.5437 h 0.788088 v -1.98456 c 0,-0.10785 0.0078,-0.21036 0.02182,-0.30168 0.0889,-0.47659 0.414269,-0.78487 0.828814,-0.78487 0.08092,0 0.144305,0.006 0.211666,0.0133 l 0.0844,0.008 z m 1.897268,0.55646 c 0.240156,0 0.434782,0.0735 0.578821,0.21806 0.226574,0.22816 0.266245,0.56391 0.271038,0.72498 h -1.796841 c 0.07295,-0.44994 0.357834,-0.94304 0.947035,-0.94304 m 0.05299,-0.59239 c -1.049278,0 -1.781988,0.82827 -1.781988,2.01442 0,1.14192 0.728982,1.87968 1.857067,1.87968 0.593198,0 1.005879,-0.12834 1.247897,-0.23643 l 0.04739,-0.0213 -0.151495,-0.57988 -0.06576,0.0262 c -0.214859,0.0862 -0.500276,0.17468 -0.987506,0.17468 -0.342393,0 -1.131546,-0.11177 -1.180267,-1.12888 l 2.543713,0.007 0.01004,-0.0499 c 0.01599,-0.0791 0.02395,-0.18583 0.02395,-0.32481 0,-0.81259 -0.409487,-1.76123 -1.563128,-1.76123"
           id="path1126"
           style="fill:#707071;fill-rule:evenodd;stroke-width:0.191381"
           sodipodi:nodetypes="cccccsssssssssssscscccccccccccccccccccccccccccccsscscccccccsscscccsscccccccssssssccccccsscscccccccsscscccssccscssssssccccsssccccscccccccscccsccsssscccsssscccssssccsccccssccsscsccscccccssccscscccccccccccssccsscsccccscccsccssssccccccccsssscccsssccccscscscccccccccssccsscscccsssssscssssccsccccssccsscsccscscccsccssssccsccccssccccccccccsscsscccccccsscccssscccsscssccccccccscccscssccssccccsscssccccsscccccccscscccsssccccccssssccssssccccscccscccscscccccccccssccccsccssc" /></g><rect
         style="fill:#b3b3b3;fill-opacity:0;stroke:none;stroke-width:0.264583;stroke-opacity:0.778802"
         id="rect1570"
         width="36.276566"
         height="11.636909"
         x="-37.041431"
         y="578.29437" /></g></g></svg>
