<?xml version="1.0" encoding="UTF-8" standalone="no"?>
<!-- Created with Inkscape (http://www.inkscape.org/) -->

<svg
   width="52.724998mm"
   height="17.900999mm"
   viewBox="0 0 52.724998 17.900999"
   version="1.1"
   id="svg5"
   xml:space="preserve"
   inkscape:version="1.2 (dc2aeda, 2022-05-15)"
   sodipodi:docname="googleplay.svg"
   xmlns:inkscape="http://www.inkscape.org/namespaces/inkscape"
   xmlns:sodipodi="http://sodipodi.sourceforge.net/DTD/sodipodi-0.dtd"
   xmlns:xlink="http://www.w3.org/1999/xlink"
   xmlns="http://www.w3.org/2000/svg"
   xmlns:svg="http://www.w3.org/2000/svg"><sodipodi:namedview
     id="namedview7"
     pagecolor="#ffffff"
     bordercolor="#000000"
     borderopacity="0.25"
     inkscape:showpageshadow="2"
     inkscape:pageopacity="0.0"
     inkscape:pagecheckerboard="0"
     inkscape:deskcolor="#d1d1d1"
     inkscape:document-units="mm"
     showgrid="false"
     inkscape:zoom="1.7122194"
     inkscape:cx="6.1323917"
     inkscape:cy="-21.025343"
     inkscape:window-width="2240"
     inkscape:window-height="840"
     inkscape:window-x="0"
     inkscape:window-y="171"
     inkscape:window-maximized="0"
     inkscape:current-layer="g2914" /><defs
     id="defs2"><clipPath
       clipPathUnits="userSpaceOnUse"
       id="clipPath911"><rect
         style="fill:#b3b3b3;fill-opacity:0;stroke:#000000;stroke-width:0.264583;stroke-opacity:0.778802"
         id="rect913"
         width="162.71875"
         height="103.71667"
         x="25.820681"
         y="155.7077" /></clipPath><clipPath
       clipPathUnits="userSpaceOnUse"
       id="clipPath1009"><rect
         style="fill:#b3b3b3;fill-opacity:0;stroke:#000000;stroke-width:0.264583;stroke-opacity:0.778802"
         id="rect1011"
         width="142.08125"
         height="90.548355"
         x="-13.286617"
         y="303.73969" /></clipPath><clipPath
       clipPathUnits="userSpaceOnUse"
       id="clipPath1043"><rect
         style="fill:#b3b3b3;fill-opacity:0;stroke:#000000;stroke-width:0.264583;stroke-opacity:0.778802"
         id="rect1045"
         width="186.62762"
         height="153.66655"
         x="-37.587765"
         y="408.83871" /></clipPath><path
       id="prefix__a"
       d="M 0,0 H 52.8 V 9.301 H 0 Z" /><path
       id="prefix__c"
       d="M 0,0.532 H 15.556 V 30.524 H 0 Z" /><path
       id="prefix__e"
       d="M 0.644,0.056 H 20.542 V 15.441 H 0.644 Z" /></defs><g
     inkscape:label="Capa 1"
     inkscape:groupmode="layer"
     id="layer1"><g
       id="g2167"
       transform="translate(50.684703,-573.13893)"><g
         id="g2914"
         transform="matrix(1.3824913,0,0,1.3824913,-0.77433285,-226.12412)"
         style="stroke-width:0.723331"><g
           fill="none"
           fill-rule="evenodd"
           id="g1099"
           transform="matrix(0.26458191,0,0,0.26458191,-35.63646,580.37689)"
           style="stroke:none;stroke-width:0.723338;stroke-opacity:0.778802"><path
             fill="#707071"
             d="m 118.056,31.876 h 2.266 V 16.687 h -2.266 z m 20.419,-9.717 -2.6,6.585 h -0.077 l -2.697,-6.585 h -2.442 l 4.044,9.203 -2.305,5.12 h 2.364 l 6.233,-14.323 z m -12.857,7.991 c -0.743,0 -1.778,-0.37 -1.778,-1.289 0,-1.172 1.29,-1.621 2.403,-1.621 0.996,0 1.465,0.215 2.071,0.508 -0.176,1.406 -1.387,2.402 -2.696,2.402 z m 0.274,-8.323 c -1.642,0 -3.342,0.723 -4.046,2.325 l 2.013,0.84 c 0.43,-0.84 1.231,-1.113 2.071,-1.113 1.172,0 2.364,0.703 2.384,1.953 v 0.156 c -0.41,-0.234 -1.29,-0.585 -2.364,-0.585 -2.17,0 -4.377,1.191 -4.377,3.42 0,2.031 1.778,3.34 3.771,3.34 1.524,0 2.364,-0.683 2.891,-1.485 h 0.08 v 1.172 h 2.188 v -5.822 c 0,-2.696 -2.013,-4.201 -4.611,-4.201 z m -14.01,2.181 h -3.225 v -5.206 h 3.225 c 1.694,0 2.656,1.404 2.656,2.602 0,1.178 -0.962,2.604 -2.656,2.604 z m -0.06,-7.32 h -5.432 v 15.188 h 2.267 v -5.754 h 3.166 c 2.513,0 4.982,-1.82 4.982,-4.718 0,-2.898 -2.47,-4.716 -4.982,-4.716 z m -29.62,13.466 c -1.566,0 -2.876,-1.312 -2.876,-3.112 0,-1.82 1.31,-3.151 2.876,-3.151 1.547,0 2.76,1.33 2.76,3.151 0,1.8 -1.213,3.112 -2.76,3.112 z m 2.604,-7.144 h -0.08 c -0.508,-0.607 -1.487,-1.156 -2.72,-1.156 -2.583,0 -4.95,2.27 -4.95,5.188 0,2.897 2.367,5.147 4.95,5.147 1.233,0 2.212,-0.547 2.72,-1.174 h 0.08 v 0.744 c 0,1.977 -1.057,3.034 -2.76,3.034 -1.39,0 -2.251,-0.999 -2.604,-1.841 l -1.976,0.823 c 0.567,1.37 2.074,3.053 4.58,3.053 2.662,0 4.912,-1.566 4.912,-5.382 v -9.278 h -2.152 z m 3.718,8.866 h 2.27 V 16.687 h -2.27 z m 5.618,-5.01 c -0.06,-1.997 1.546,-3.015 2.7,-3.015 0.901,0 1.664,0.45 1.919,1.097 z m 7.045,-1.722 c -0.43,-1.156 -1.741,-3.29 -4.423,-3.29 -2.662,0 -4.873,2.096 -4.873,5.169 0,2.895 2.191,5.166 5.127,5.166 2.37,0 3.738,-1.449 4.307,-2.29 l -1.763,-1.175 c -0.586,0.862 -1.388,1.43 -2.544,1.43 -1.154,0 -1.976,-0.53 -2.505,-1.566 l 6.91,-2.858 z M 46.142,23.44 v 2.191 h 5.245 c -0.156,1.234 -0.566,2.134 -1.193,2.76 -0.764,0.763 -1.958,1.606 -4.052,1.606 -3.23,0 -5.754,-2.604 -5.754,-5.834 0,-3.229 2.525,-5.833 5.754,-5.833 1.742,0 3.014,0.687 3.954,1.567 l 1.547,-1.546 c -1.312,-1.253 -3.054,-2.212 -5.501,-2.212 -4.423,0 -8.142,3.601 -8.142,8.024 0,4.424 3.719,8.025 8.142,8.025 2.388,0 4.19,-0.783 5.598,-2.25 1.448,-1.449 1.898,-3.485 1.898,-5.129 0,-0.509 -0.038,-0.978 -0.117,-1.37 h -7.379 z m 13.46,6.713 c -1.566,0 -2.917,-1.292 -2.917,-3.131 0,-1.86 1.351,-3.132 2.917,-3.132 1.565,0 2.916,1.272 2.916,3.132 0,1.84 -1.35,3.13 -2.916,3.13 z m 0,-8.3 c -2.858,0 -5.187,2.174 -5.187,5.169 0,2.975 2.329,5.166 5.187,5.166 2.858,0 5.187,-2.191 5.187,-5.166 0,-2.995 -2.33,-5.169 -5.187,-5.169 z m 11.315,8.3 c -1.566,0 -2.916,-1.292 -2.916,-3.131 0,-1.86 1.35,-3.132 2.916,-3.132 1.565,0 2.916,1.272 2.916,3.132 0,1.84 -1.351,3.13 -2.916,3.13 z m 0,-8.3 c -2.858,0 -5.186,2.174 -5.186,5.169 0,2.975 2.328,5.166 5.186,5.166 2.857,0 5.187,-2.191 5.187,-5.166 0,-2.995 -2.33,-5.169 -5.187,-5.169 z"
             transform="translate(0,-1)"
             id="path1068"
             style="stroke:none;stroke-width:0.723338;stroke-opacity:0.778802" /><g
             transform="translate(38.2,-0.66)"
             id="g1077"
             style="stroke:none;stroke-width:0.723338;stroke-opacity:0.778802"><mask
               id="prefix__b"
               fill="#ffffff"><use
                 xlink:href="#prefix__a"
                 id="use1070" /></mask><text
               fill="#707071"
               font-family="Avenir-Book, Avenir"
               font-size="9.992px"
               mask="url(#prefix__b)"
               id="text1075"
               style="stroke:none;stroke-width:0.723338;stroke-opacity:0.778802"><tspan
                 x="0"
                 y="8"
                 id="tspan1073"
                 style="stroke:none;stroke-width:0.723338;stroke-opacity:0.778802">GET IT ON</tspan></text></g><g
             id="g1097"
             style="stroke:none;stroke-width:0.723338;stroke-opacity:0.778802"><g
               transform="translate(0,2.944)"
               id="g1084"
               style="stroke:none;stroke-width:0.723338;stroke-opacity:0.778802"><mask
                 id="prefix__d"
                 fill="#ffffff"><use
                   xlink:href="#prefix__c"
                   id="use1079" /></mask><path
                 fill="#3ccffd"
                 d="M 0.642,0.532 15.554,15.44 15.556,15.527 15.544,15.614 0.642,30.524 0.554,30.438 C 0.206,30.068 0,29.498 0,28.757 V 2.299 C 0,1.558 0.206,0.987 0.554,0.618 Z"
                 mask="url(#prefix__d)"
                 id="path1082"
                 style="stroke:none;stroke-width:0.723338;stroke-opacity:0.778802" /></g><path
               fill="#fccb2f"
               d="m 15.554,16.385 0.002,0.087 -0.012,0.087 4.998,5.03 0.113,-0.064 5.854,-3.328 c 1.67,-0.949 1.67,-2.502 0,-3.453 l -5.854,-3.326 -0.112,-0.062 -4.99,5.03 z"
               transform="translate(0,2)"
               id="path1086"
               style="stroke:none;stroke-width:0.723338;stroke-opacity:0.778802" /><path
               fill="#ee344f"
               d="m 0.635,31.47 c 0.55,0.582 1.462,0.654 2.486,0.072 L 20.541,21.588 15.544,16.559 0.634,31.47 Z"
               transform="translate(0,2)"
               id="path1088"
               style="stroke:none;stroke-width:0.723338;stroke-opacity:0.778802" /><g
               transform="translate(0,2.944)"
               id="g1095"
               style="stroke:none;stroke-width:0.723338;stroke-opacity:0.778802"><mask
                 id="prefix__f"
                 fill="#ffffff"><use
                   xlink:href="#prefix__e"
                   id="use1090" /></mask><path
                 fill="#4ce27a"
                 d="M 0.644,0.53 15.554,15.44 20.542,10.412 3.13,0.458 C 2.65,0.184 2.194,0.055 1.79,0.055 1.331,0.055 0.937,0.22 0.644,0.53"
                 mask="url(#prefix__f)"
                 id="path1093"
                 style="stroke:none;stroke-width:0.723338;stroke-opacity:0.778802" /></g></g></g></g><rect
         style="fill:#b3b3b3;fill-opacity:0;stroke:none;stroke-width:0.264583;stroke-opacity:0.778802"
         id="rect1570"
         width="36.276566"
         height="11.636909"
         x="-37.041431"
         y="578.29437" /></g></g></svg>
