<?xml version="1.0" encoding="UTF-8" standalone="no"?>
<!-- Created with Inkscape (http://www.inkscape.org/) -->

<svg
   width="189"
   height="123"
   viewBox="0 0 50.006252 32.543748"
   version="1.1"
   id="svg5"
   xml:space="preserve"
   inkscape:version="1.2 (dc2aeda, 2022-05-15)"
   sodipodi:docname="logo-toyota.svg"
   xmlns:inkscape="http://www.inkscape.org/namespaces/inkscape"
   xmlns:sodipodi="http://sodipodi.sourceforge.net/DTD/sodipodi-0.dtd"
   xmlns="http://www.w3.org/2000/svg"
   xmlns:svg="http://www.w3.org/2000/svg"><sodipodi:namedview
     id="namedview7"
     pagecolor="#ffffff"
     bordercolor="#000000"
     borderopacity="0.25"
     inkscape:showpageshadow="2"
     inkscape:pageopacity="0.0"
     inkscape:pagecheckerboard="0"
     inkscape:deskcolor="#d1d1d1"
     inkscape:document-units="px"
     showgrid="false"
     inkscape:zoom="3.4458193"
     inkscape:cx="165.56295"
     inkscape:cy="45.997769"
     inkscape:window-width="2240"
     inkscape:window-height="1117"
     inkscape:window-x="0"
     inkscape:window-y="25"
     inkscape:window-maximized="1"
     inkscape:current-layer="layer1" /><defs
     id="defs2" /><g
     inkscape:label="Capa 1"
     inkscape:groupmode="layer"
     id="layer1"><g
       id="g302"
       transform="matrix(0.12874003,0,0,0.12874003,8.2929534,-53.868291)"
       style="fill:#000000"><path
         style="fill:#000000;fill-opacity:1;stroke-width:0.169333"
         d="m 124.05557,666.74049 c 0.30269,-0.0376 0.79799,-0.0376 1.10067,0 0.30268,0.0376 0.055,0.0683 -0.55033,0.0683 -0.60537,0 -0.85302,-0.0307 -0.55034,-0.0683 z m 11.85334,0 c 0.30268,-0.0376 0.79798,-0.0376 1.10066,0 0.30269,0.0376 0.055,0.0683 -0.55033,0.0683 -0.60537,0 -0.85302,-0.0307 -0.55033,-0.0683 z m -17.35667,-0.16356 c 0.16298,-0.0426 0.42968,-0.0426 0.59267,0 0.16298,0.0426 0.0296,0.0774 -0.29634,0.0774 -0.32596,0 -0.45931,-0.0349 -0.29633,-0.0774 z m 23.368,0 c 0.16298,-0.0426 0.42968,-0.0426 0.59267,0 0.16298,0.0426 0.0296,0.0774 -0.29634,0.0774 -0.32596,0 -0.45931,-0.0349 -0.29633,-0.0774 z m -27.00867,-0.16476 c 0.11642,-0.047 0.30692,-0.047 0.42334,0 0.11641,0.047 0.0212,0.0854 -0.21167,0.0854 -0.23283,0 -0.32808,-0.0384 -0.21167,-0.0854 z m 30.81867,0 c 0.11642,-0.047 0.30692,-0.047 0.42333,0 0.11642,0.047 0.0212,0.0854 -0.21166,0.0854 -0.23284,0 -0.32809,-0.0384 -0.21167,-0.0854 z m -33.69733,-0.16933 c 0.11641,-0.047 0.30691,-0.047 0.42333,0 0.11642,0.047 0.0212,0.0854 -0.21167,0.0854 -0.23283,0 -0.32808,-0.0384 -0.21166,-0.0854 z m 36.75591,-0.004 c 0.12225,-0.0489 0.2683,-0.0429 0.32457,0.0134 0.0563,0.0563 -0.0438,0.0963 -0.22225,0.0889 -0.19728,-0.008 -0.23739,-0.0483 -0.10232,-0.10231 z m -39.28533,-0.16933 c 0.12224,-0.0489 0.26829,-0.0429 0.32456,0.0134 0.0563,0.0563 -0.0438,0.0963 -0.22225,0.0889 -0.19727,-0.008 -0.23739,-0.0483 -0.10231,-0.10231 z m 41.82533,0 c 0.12225,-0.0489 0.2683,-0.0429 0.32457,0.0134 0.0563,0.0563 -0.0438,0.0963 -0.22225,0.0889 -0.19728,-0.008 -0.23739,-0.0483 -0.10232,-0.10231 z m -44.02666,-0.16933 c 0.12223,-0.0489 0.26829,-0.0429 0.32455,0.0134 0.0563,0.0563 -0.0437,0.0963 -0.22225,0.0889 -0.19726,-0.008 -0.23738,-0.0483 -0.1023,-0.10231 z m 46.228,0 c 0.12224,-0.0489 0.26829,-0.0429 0.32456,0.0134 0.0563,0.0563 -0.0438,0.0963 -0.22225,0.0889 -0.19727,-0.008 -0.23739,-0.0483 -0.10231,-0.10231 z m -48.26,-0.16934 c 0.12223,-0.0489 0.26829,-0.0429 0.32455,0.0134 0.0563,0.0563 -0.0437,0.0963 -0.22225,0.089 -0.19726,-0.008 -0.23738,-0.0483 -0.1023,-0.10231 z m -3.72534,-0.33866 c 0.12224,-0.0489 0.26829,-0.0429 0.32456,0.0134 0.0563,0.0563 -0.0438,0.0963 -0.22225,0.089 -0.19726,-0.008 -0.23739,-0.0483 -0.10231,-0.10231 z m 57.74267,0 c 0.12224,-0.0489 0.26829,-0.0429 0.32456,0.0134 0.0563,0.0563 -0.0438,0.0963 -0.22225,0.089 -0.19727,-0.008 -0.23739,-0.0483 -0.10231,-0.10231 z m -44.53467,-13.03867 c 0.12225,-0.0489 0.2683,-0.0429 0.32457,0.0134 0.0563,0.0563 -0.0438,0.0963 -0.22225,0.0889 -0.19728,-0.008 -0.23739,-0.0483 -0.10232,-0.10231 z m 31.32667,0 c 0.12224,-0.0489 0.26829,-0.0429 0.32456,0.0134 0.0563,0.0563 -0.0438,0.0963 -0.22225,0.0889 -0.19727,-0.008 -0.23739,-0.0483 -0.10231,-0.10231 z m -33.69733,-0.16933 c 0.12224,-0.0489 0.26829,-0.0429 0.32456,0.0134 0.0563,0.0563 -0.0438,0.0963 -0.22225,0.0889 -0.19727,-0.008 -0.23739,-0.0483 -0.10231,-0.10231 z m 36.068,0 c 0.12224,-0.0489 0.26829,-0.0429 0.32456,0.0134 0.0563,0.0563 -0.0438,0.0963 -0.22225,0.0889 -0.19727,-0.008 -0.23739,-0.0483 -0.10231,-0.10231 z m -38.1,-0.16934 c 0.12224,-0.0489 0.26829,-0.0429 0.32456,0.0134 0.0563,0.0563 -0.0438,0.0963 -0.22225,0.089 -0.19727,-0.008 -0.23739,-0.0483 -0.10231,-0.10231 z m 40.132,0 c 0.12224,-0.0489 0.26829,-0.0429 0.32456,0.0134 0.0563,0.0563 -0.0438,0.0963 -0.22225,0.089 -0.19727,-0.008 -0.23739,-0.0483 -0.10231,-0.10231 z m -41.99467,-0.16933 c 0.12224,-0.0489 0.26829,-0.0429 0.32456,0.0134 0.0563,0.0563 -0.0438,0.0963 -0.22225,0.0889 -0.19727,-0.008 -0.23739,-0.0483 -0.10231,-0.10231 z m 43.85733,0 c 0.12225,-0.0489 0.2683,-0.0429 0.32457,0.0134 0.0563,0.0563 -0.0438,0.0963 -0.22225,0.0889 -0.19728,-0.008 -0.23739,-0.0483 -0.10232,-0.10231 z m -45.55066,-0.16933 c 0.12223,-0.0489 0.26829,-0.0429 0.32455,0.0134 0.0563,0.0563 -0.0437,0.0963 -0.22225,0.089 -0.19726,-0.008 -0.23738,-0.0483 -0.1023,-0.10231 z m 47.244,0 c 0.12224,-0.0489 0.26829,-0.0429 0.32456,0.0134 0.0563,0.0563 -0.0438,0.0963 -0.22225,0.089 -0.19727,-0.008 -0.23739,-0.0483 -0.10231,-0.10231 z M -23.751693,615.25865 c -0.210628,-0.26858 -0.204639,-0.27455 0.06393,-0.0639 0.282067,0.22122 0.371768,0.36028 0.2324,0.36028 -0.03516,0 -0.168513,-0.13335 -0.296334,-0.29634 z m 308.208263,0.2324 c 0,-0.0352 0.13335,-0.16851 0.29634,-0.29634 0.26858,-0.21061 0.27455,-0.20464 0.0639,0.0639 -0.22122,0.28206 -0.36028,0.37178 -0.36028,0.2324 z m -310.821982,-2.68773 -0.497347,-0.55033 0.550333,0.49735 c 0.512989,0.4636 0.628167,0.60331 0.497347,0.60331 -0.02914,0 -0.276792,-0.24765 -0.550333,-0.55033 z m 313.700652,-0.0423 c 0.31594,-0.32597 0.61253,-0.59267 0.6591,-0.59267 0.0466,0 -0.17382,0.2667 -0.48977,0.59267 -0.31594,0.32596 -0.61253,0.59266 -0.65909,0.59266 -0.0466,0 0.17382,-0.2667 0.48976,-0.59266 z m 3.72533,-3.72534 c 0.31595,-0.32596 0.61253,-0.59266 0.6591,-0.59266 0.0466,0 -0.17382,0.2667 -0.48976,0.59266 -0.31594,0.32597 -0.61253,0.59267 -0.6591,0.59267 -0.0466,0 0.17382,-0.2667 0.48976,-0.59267 z m -321.320649,-0.127 -0.497347,-0.55033 0.550333,0.49735 c 0.512989,0.4636 0.628168,0.60332 0.497348,0.60332 -0.02914,0 -0.276793,-0.24765 -0.550334,-0.55034 z m 31.8292313,-1.016 -0.3225783,-0.381 0.381,0.32258 c 0.3580452,0.30314 0.4580873,0.43942 0.3225783,0.43942 -0.032133,0 -0.2035827,-0.17145 -0.381,-0.381 z m 257.7414177,0.0423 c 0.16858,-0.18627 0.3446,-0.33867 0.39116,-0.33867 0.0466,0 -0.0532,0.1524 -0.22182,0.33867 -0.16857,0.18626 -0.3446,0.33866 -0.39116,0.33866 -0.0466,0 0.0532,-0.1524 0.22182,-0.33866 z m 33.95134,-1.24928 c 0,-0.0351 0.13335,-0.1685 0.29633,-0.29633 0.26858,-0.21062 0.27456,-0.20464 0.0639,0.0639 -0.22122,0.28206 -0.36027,0.37177 -0.36027,0.23239 z m -298.2967577,-5.39706 -0.3225783,-0.381 0.381,0.32258 c 0.20955,0.17741 0.381,0.34886 0.381,0.381 0,0.1355 -0.1362778,0.0355 -0.4394217,-0.32258 z M 265.66057,601.6057 c 0,-0.0352 0.13335,-0.1685 0.29634,-0.29633 0.26858,-0.21062 0.27455,-0.20464 0.0639,0.0639 -0.22122,0.28206 -0.36028,0.37177 -0.36028,0.23239 z M 84.995276,569.39755 c 0.0081,-0.19728 0.04825,-0.23739 0.102305,-0.10231 0.04891,0.12224 0.0429,0.26829 -0.01336,0.32456 -0.05627,0.0563 -0.09629,-0.0438 -0.08894,-0.22225 z m 90.931994,0 c 0.008,-0.19728 0.0483,-0.23739 0.10231,-0.10231 0.0489,0.12224 0.0429,0.26829 -0.0134,0.32456 -0.0563,0.0563 -0.0963,-0.0438 -0.089,-0.22225 z m -91.08796,-2.2719 c 0,-0.23283 0.03844,-0.32808 0.08541,-0.21166 0.04698,0.11641 0.04698,0.30691 0,0.42333 -0.04697,0.11642 -0.08541,0.0212 -0.08541,-0.21167 z m 91.27067,0 c 0,-0.23283 0.0384,-0.32808 0.0854,-0.21166 0.047,0.11641 0.047,0.30691 0,0.42333 -0.047,0.11642 -0.0854,0.0212 -0.0854,-0.21167 z m -91.440003,-2.54 c 0,-0.23283 0.03843,-0.32808 0.08541,-0.21166 0.04698,0.11641 0.04698,0.30691 0,0.42333 -0.04698,0.11642 -0.08541,0.0212 -0.08541,-0.21167 z m 91.609333,0 c 0,-0.23283 0.0384,-0.32808 0.0854,-0.21166 0.047,0.11641 0.047,0.30691 0,0.42333 -0.047,0.11642 -0.0854,0.0212 -0.0854,-0.21167 z m -91.772391,-3.13266 c 0.0035,-0.2794 0.0414,-0.3732 0.08434,-0.20845 0.04293,0.16476 0.04011,0.39336 -0.0063,0.508 -0.04639,0.11465 -0.08151,-0.0201 -0.07806,-0.29955 z m 91.947991,0 c 0.003,-0.2794 0.0414,-0.3732 0.0844,-0.20845 0.0429,0.16476 0.0401,0.39336 -0.006,0.508 -0.0464,0.11465 -0.0815,-0.0201 -0.0781,-0.29955 z m -74.18763,-2.89278 c 0.008,-0.19727 0.0482,-0.23738 0.1023,-0.10231 0.0489,0.12225 0.0429,0.2683 -0.0134,0.32456 -0.0563,0.0563 -0.0963,-0.0438 -0.0889,-0.22225 z m -17.916586,-1.42522 c 0,-0.4191 0.03302,-0.59055 0.07338,-0.381 0.04036,0.20955 0.04036,0.55245 0,0.762 -0.04036,0.20955 -0.07338,0.0381 -0.07338,-0.381 z m 92.286676,0 c 0,-0.4191 0.033,-0.59055 0.0734,-0.381 0.0404,0.20955 0.0404,0.55245 0,0.762 -0.0403,0.20955 -0.0734,0.0381 -0.0734,-0.381 z m -74.53943,-0.43744 c 0.008,-0.19728 0.0483,-0.23739 0.10231,-0.10231 0.0489,0.12224 0.0429,0.26829 -0.0134,0.32456 -0.0563,0.0563 -0.0963,-0.0438 -0.0889,-0.22225 z m 56.89599,-2.032 c 0.008,-0.19728 0.0483,-0.23739 0.10232,-0.10231 0.0489,0.12224 0.0429,0.26829 -0.0134,0.32456 -0.0563,0.0563 -0.0963,-0.0438 -0.089,-0.22225 z m -57.06532,-0.16934 c 0.008,-0.19727 0.0482,-0.23738 0.1023,-0.10231 0.0489,0.12225 0.0429,0.2683 -0.0134,0.32456 -0.0563,0.0563 -0.0963,-0.0438 -0.0889,-0.22225 z m 57.24804,-2.44122 c 0,-0.23284 0.0384,-0.32809 0.0854,-0.21167 0.047,0.11642 0.047,0.30692 0,0.42333 -0.047,0.11642 -0.0854,0.0212 -0.0854,-0.21166 z m -57.40401,-0.16934 c 0,-0.23283 0.0384,-0.32808 0.0854,-0.21166 0.047,0.11641 0.047,0.30691 0,0.42333 -0.047,0.11642 -0.0854,0.0212 -0.0854,-0.21167 z m 217.41063,-0.94544 c 0.008,-0.19727 0.0483,-0.23738 0.10231,-0.10231 0.0489,0.12225 0.0429,0.2683 -0.0134,0.32456 -0.0563,0.0563 -0.0963,-0.0438 -0.089,-0.22225 z m -159.82132,-2.35656 c 0.002,-0.37253 0.0366,-0.505 0.0771,-0.29435 0.0405,0.21063 0.039,0.51544 -0.003,0.67733 -0.0424,0.16189 -0.0755,-0.0105 -0.0736,-0.38298 z m -217.772365,-0.16933 c 0.0035,-0.2794 0.0414,-0.37319 0.08434,-0.20845 0.04293,0.16476 0.04011,0.39336 -0.0063,0.508 -0.04638,0.11466 -0.08151,-0.0202 -0.07806,-0.29955 z m 160.029695,-0.16933 c 0.002,-0.37254 0.0365,-0.50501 0.0771,-0.29436 0.0405,0.21064 0.039,0.51544 -0.003,0.67734 -0.0424,0.16188 -0.0755,-0.0105 -0.0737,-0.38298 z m 217.75296,0.16933 c 0.003,-0.2794 0.0414,-0.37319 0.0844,-0.20845 0.0429,0.16476 0.0401,0.39336 -0.006,0.508 -0.0464,0.11466 -0.0815,-0.0202 -0.0781,-0.29955 z m -349.862297,-1.03011 c 0.0081,-0.19727 0.04825,-0.23738 0.102304,-0.10231 0.04892,0.12225 0.0429,0.2683 -0.01336,0.32456 -0.05627,0.0563 -0.09629,-0.0437 -0.08894,-0.22225 z m 321.902657,0 c 0.008,-0.19727 0.0483,-0.23738 0.10231,-0.10231 0.0489,0.12225 0.0429,0.2683 -0.0134,0.32456 -0.0563,0.0563 -0.0963,-0.0437 -0.089,-0.22225 z m -169.98169,-1.03852 c 0.25611,-0.0388 0.67521,-0.0388 0.93133,0 0.25612,0.0388 0.0466,0.0706 -0.46567,0.0706 -0.51223,0 -0.72178,-0.0317 -0.46566,-0.0706 z m 17.44365,0 c 0.2574,-0.0389 0.6384,-0.0379 0.84667,0.002 0.20828,0.0402 -0.002,0.072 -0.46799,0.0708 -0.46567,-0.002 -0.63607,-0.0342 -0.37868,-0.0731 z m -22.18177,-0.16516 c 0.16476,-0.0429 0.39336,-0.0401 0.508,0.006 0.11466,0.0464 -0.0202,0.0815 -0.29955,0.0781 -0.2794,-0.003 -0.37319,-0.0414 -0.20845,-0.0843 z m 27.26267,0 c 0.16476,-0.0429 0.39336,-0.0401 0.508,0.006 0.11465,0.0464 -0.0202,0.0815 -0.29955,0.0781 -0.2794,-0.003 -0.3732,-0.0414 -0.20845,-0.0843 z m -30.81867,-0.16934 c 0.16476,-0.0429 0.39336,-0.0401 0.508,0.006 0.11466,0.0464 -0.0202,0.0815 -0.29955,0.0781 -0.2794,-0.003 -0.37319,-0.0414 -0.20845,-0.0843 z m 34.45612,0.005 c 0.11641,-0.047 0.30691,-0.047 0.42333,0 0.11642,0.047 0.0212,0.0854 -0.21167,0.0854 -0.23283,0 -0.32808,-0.0384 -0.21166,-0.0854 z m -37.42267,-0.16933 c 0.11642,-0.047 0.30692,-0.047 0.42333,0 0.11642,0.047 0.0212,0.0854 -0.21166,0.0854 -0.23284,0 -0.32809,-0.0384 -0.21167,-0.0854 z m 40.30133,0 c 0.11642,-0.047 0.30692,-0.047 0.42334,0 0.11641,0.047 0.0212,0.0854 -0.21167,0.0854 -0.23283,0 -0.32808,-0.0384 -0.21167,-0.0854 z M 107.64082,545.674 c 0.12224,-0.0489 0.26829,-0.0429 0.32456,0.0134 0.0563,0.0563 -0.0438,0.0963 -0.22225,0.0889 -0.19726,-0.008 -0.23739,-0.0483 -0.10231,-0.10231 z m 45.55067,0 c 0.12224,-0.0489 0.26829,-0.0429 0.32456,0.0134 0.0563,0.0563 -0.0438,0.0963 -0.22225,0.0889 -0.19727,-0.008 -0.23739,-0.0483 -0.10231,-0.10231 z m -47.752,-0.16933 c 0.12224,-0.0489 0.26829,-0.0429 0.32456,0.0134 0.0563,0.0563 -0.0438,0.0963 -0.22225,0.089 -0.19727,-0.008 -0.23739,-0.0483 -0.10231,-0.10231 z m 49.95333,0 c 0.12225,-0.0489 0.2683,-0.0429 0.32457,0.0134 0.0563,0.0563 -0.0438,0.0963 -0.22225,0.089 -0.19728,-0.008 -0.23739,-0.0483 -0.10232,-0.10231 z M -30.65939,545.1829 c 0.0081,-0.19727 0.04825,-0.23739 0.102304,-0.10231 0.04892,0.12224 0.0429,0.26829 -0.01336,0.32456 -0.05627,0.0563 -0.09629,-0.0437 -0.08894,-0.22225 z m 133.89755,0.15244 c 0.12223,-0.0489 0.26829,-0.0429 0.32455,0.0134 0.0563,0.0563 -0.0437,0.0963 -0.22225,0.0889 -0.19726,-0.008 -0.23738,-0.0483 -0.1023,-0.10231 z m 54.356,0 c 0.12224,-0.0489 0.26829,-0.0429 0.32456,0.0134 0.0563,0.0563 -0.0438,0.0963 -0.22225,0.0889 -0.19727,-0.008 -0.23739,-0.0483 -0.10231,-0.10231 z m 133.98777,-0.15244 c 0.008,-0.19727 0.0483,-0.23739 0.10232,-0.10231 0.0489,0.12224 0.0429,0.26829 -0.0134,0.32456 -0.0563,0.0563 -0.0963,-0.0437 -0.0889,-0.22225 z m -322.362177,-5.06616 c 5.08e-4,-0.93134 0.02888,-1.29073 0.06319,-0.79866 0.03431,0.49208 0.03395,1.25408 -8.47e-4,1.69333 -0.03476,0.43927 -0.06283,0.0367 -0.06239,-0.89467 z m 322.579197,-0.0847 c 0,-0.88477 0.0285,-1.24672 0.0634,-0.80433 0.0349,0.44238 0.0349,1.16628 0,1.60866 -0.0349,0.44239 -0.0634,0.0804 -0.0634,-0.80433 z m -350.209365,0.762 c 0.0035,-0.2794 0.0414,-0.37319 0.08434,-0.20845 0.04293,0.16476 0.04011,0.39336 -0.0063,0.508 -0.04638,0.11466 -0.08151,-0.0202 -0.07806,-0.29955 z m 377.782655,0 c 0.003,-0.2794 0.0414,-0.37319 0.0844,-0.20845 0.0429,0.16476 0.0401,0.39336 -0.006,0.508 -0.0464,0.11466 -0.0815,-0.0202 -0.0781,-0.29955 z M -58.260724,538.0706 c 0.0081,-0.19727 0.04825,-0.23739 0.102305,-0.10231 0.04892,0.12224 0.0429,0.26829 -0.01337,0.32456 -0.05627,0.0563 -0.09629,-0.0438 -0.08894,-0.22225 z m 377.443994,0 c 0.008,-0.19727 0.0483,-0.23739 0.10231,-0.10231 0.0489,0.12224 0.0429,0.26829 -0.0134,0.32456 -0.0563,0.0563 -0.0963,-0.0438 -0.089,-0.22225 z m -377.274661,-1.86267 c 0.0081,-0.19727 0.04825,-0.23738 0.102306,-0.10231 0.04892,0.12224 0.0429,0.26829 -0.01337,0.32456 -0.05627,0.0563 -0.09629,-0.0438 -0.08894,-0.22225 z m 27.445368,-1.25589 c 0,-0.23283 0.03843,-0.32808 0.08541,-0.21167 0.04697,0.11642 0.04697,0.30692 0,0.42334 -0.04697,0.11641 -0.08541,0.0212 -0.08541,-0.21167 z m 322.241333,0 c 0,-0.23283 0.0384,-0.32808 0.0854,-0.21167 0.047,0.11642 0.047,0.30692 0,0.42334 -0.047,0.11641 -0.0854,0.0212 -0.0854,-0.21167 z M 122.61624,516.03503 c 0.25612,-0.0388 0.67522,-0.0388 0.93133,0 0.25612,0.0388 0.0466,0.0706 -0.46566,0.0706 -0.51224,0 -0.72179,-0.0317 -0.46567,-0.0706 z m 15.07299,-1.6e-4 c 0.2574,-0.0389 0.6384,-0.0379 0.84666,0.002 0.20828,0.0402 -0.002,0.072 -0.46798,0.0708 -0.46567,-10e-4 -0.63607,-0.0342 -0.37868,-0.0731 z m -20.15299,-0.16461 c 0.16298,-0.0426 0.42968,-0.0426 0.59267,0 0.16298,0.0426 0.0296,0.0774 -0.29634,0.0774 -0.32596,0 -0.45931,-0.0349 -0.29633,-0.0774 z m 25.4,0 c 0.16298,-0.0426 0.42968,-0.0426 0.59267,0 0.16298,0.0426 0.0296,0.0774 -0.29634,0.0774 -0.32596,0 -0.45931,-0.0349 -0.29633,-0.0774 z m -28.87133,-0.16475 c 0.11641,-0.047 0.30691,-0.047 0.42333,0 0.11642,0.047 0.0212,0.0854 -0.21167,0.0854 -0.23283,0 -0.32808,-0.0384 -0.21166,-0.0854 z m 32.512,0 c 0.11641,-0.047 0.30691,-0.047 0.42333,0 0.11642,0.047 0.0212,0.0854 -0.21167,0.0854 -0.23283,0 -0.32808,-0.0384 -0.21166,-0.0854 z m -35.39067,-0.16934 c 0.11642,-0.047 0.30692,-0.047 0.42333,0 0.11642,0.047 0.0212,0.0854 -0.21166,0.0854 -0.23284,0 -0.32809,-0.0384 -0.21167,-0.0854 z m 38.26933,0 c 0.11642,-0.047 0.30692,-0.047 0.42334,0 0.11641,0.047 0.0212,0.0854 -0.21167,0.0854 -0.23283,0 -0.32808,-0.0384 -0.21167,-0.0854 z m -40.80933,-0.16933 c 0.11642,-0.047 0.30692,-0.047 0.42333,0 0.11642,0.047 0.0212,0.0854 -0.21166,0.0854 -0.23284,0 -0.32809,-0.0384 -0.21167,-0.0854 z m 43.34933,0 c 0.11642,-0.047 0.30692,-0.047 0.42334,0 0.11641,0.047 0.0212,0.0854 -0.21167,0.0854 -0.23283,0 -0.32808,-0.0384 -0.21167,-0.0854 z m -45.54008,-0.17286 c 0.12224,-0.0489 0.26829,-0.0429 0.32456,0.0134 0.0563,0.0563 -0.0438,0.0963 -0.22225,0.0889 -0.19727,-0.008 -0.23739,-0.0483 -0.10231,-0.10231 z m 47.92133,0 c 0.12225,-0.0489 0.2683,-0.0429 0.32457,0.0134 0.0563,0.0563 -0.0438,0.0963 -0.22225,0.0889 -0.19728,-0.008 -0.23739,-0.0483 -0.10232,-0.10231 z M 4.0189738,512.30399 c -0.2106286,-0.26858 -0.2046393,-0.27457 0.063933,-0.0639 0.1629834,0.12782 0.2963334,0.26117 0.2963334,0.29634 0,0.13936 -0.1390549,0.0497 -0.3602669,-0.2324 z m 252.6669362,0.2324 c 0,-0.0352 0.13335,-0.16852 0.29633,-0.29634 0.26858,-0.21063 0.27456,-0.20464 0.0639,0.0639 -0.22122,0.28206 -0.36027,0.37176 -0.36027,0.2324 z m 4.23333,-4.23334 c 0,-0.0352 0.13335,-0.16851 0.29633,-0.29633 0.26858,-0.21063 0.27456,-0.20464 0.0639,0.0639 -0.22121,0.28207 -0.36027,0.37177 -0.36027,0.2324 z m -232.087421,-17.08106 -0.322578,-0.381 0.381,0.32257 c 0.358045,0.30315 0.458087,0.43943 0.322578,0.43943 -0.03213,0 -0.203583,-0.17145 -0.381,-0.381 z m 202.962091,0.31706 c 0,-0.0352 0.13335,-0.16851 0.29633,-0.29633 0.26858,-0.21063 0.27456,-0.20464 0.0639,0.0639 -0.22122,0.28207 -0.36027,0.37177 -0.36027,0.2324 z m -204.655424,-2.0104 -0.322579,-0.381 0.381,0.32258 c 0.358046,0.30314 0.458088,0.43942 0.322579,0.43942 -0.03213,0 -0.203583,-0.17145 -0.381,-0.381 z m 206.518084,0.14774 c 0,-0.0352 0.13335,-0.16852 0.29634,-0.29634 0.26858,-0.21063 0.27455,-0.20464 0.0639,0.0639 -0.22122,0.28206 -0.36028,0.37176 -0.36028,0.2324 z M -9.2775926,486.86165 c 0,-0.79163 0.029169,-1.11548 0.064821,-0.71966 0.03565,0.39581 0.03565,1.04351 0,1.43933 -0.035651,0.39582 -0.064821,0.072 -0.064821,-0.71967 z m 279.5693326,0 c 0,-0.79163 0.0292,-1.11548 0.0648,-0.71966 0.0356,0.39581 0.0356,1.04351 0,1.43933 -0.0356,0.39582 -0.0648,0.072 -0.0648,-0.71967 z M -9.1540571,483.71488 c 0.00813,-0.19727 0.04825,-0.23739 0.1023044,-0.10231 0.048915,0.12224 0.042901,0.26829 -0.01336,0.32456 -0.056268,0.0563 -0.09629,-0.0438 -0.088937,-0.22225 z m 279.2306571,0 c 0.008,-0.19727 0.0483,-0.23739 0.10231,-0.10231 0.0489,0.12224 0.0429,0.26829 -0.0134,0.32456 -0.0563,0.0563 -0.0963,-0.0438 -0.089,-0.22225 z m -302.104026,-1.65849 c 0,-0.0352 0.13335,-0.16852 0.296333,-0.29634 0.268573,-0.21063 0.274562,-0.20464 0.06393,0.0639 -0.221212,0.28206 -0.360267,0.37176 -0.360267,0.2324 z m 324.759726,-0.2324 c -0.21062,-0.26858 -0.20464,-0.27457 0.0639,-0.0639 0.28206,0.22121 0.37177,0.36027 0.23239,0.36027 -0.0352,0 -0.1685,-0.13335 -0.29633,-0.29633 z m -7.19115,-7.19667 -0.32258,-0.381 0.381,0.32258 c 0.35804,0.30314 0.45808,0.43942 0.32258,0.43942 -0.0321,0 -0.20359,-0.17145 -0.381,-0.381 z m -310.287243,0.14773 c 0,-0.0352 0.13335,-0.16851 0.296334,-0.29633 0.268572,-0.21063 0.274562,-0.20464 0.06393,0.0639 -0.221212,0.28207 -0.360267,0.37177 -0.360267,0.2324 z m 1.862667,-1.69333 c 0,-0.0352 0.13335,-0.16851 0.296333,-0.29633 0.268573,-0.21063 0.274562,-0.20464 0.06393,0.0639 -0.221212,0.28207 -0.360267,0.37177 -0.360267,0.2324 z m 152.368246,-4.11574 c 0.12225,-0.0489 0.2683,-0.0429 0.32457,0.0134 0.0563,0.0563 -0.0438,0.0963 -0.22225,0.0889 -0.19728,-0.008 -0.23739,-0.0482 -0.10232,-0.10231 z m 1.86267,0 c 0.12224,-0.0489 0.26829,-0.0429 0.32456,0.0134 0.0563,0.0563 -0.0438,0.0963 -0.22225,0.0889 -0.19727,-0.008 -0.23739,-0.0482 -0.10231,-0.10231 z M 28.001241,464.50965 c 0.55297,-0.5588 1.043498,-1.016 1.090064,-1.016 0.04657,0 -0.367761,0.4572 -0.920731,1.016 -0.55297,0.5588 -1.043498,1.016 -1.090065,1.016 -0.04657,0 0.367762,-0.4572 0.920732,-1.016 z m 205.554579,0.635 -0.32258,-0.381 0.381,0.32258 c 0.35804,0.30314 0.45808,0.43942 0.32258,0.43942 -0.0321,0 -0.20359,-0.17145 -0.381,-0.381 z m -1.26673,-1.27 -0.41052,-0.46566 0.46567,0.41051 c 0.43524,0.38369 0.54332,0.52082 0.41052,0.52082 -0.0303,0 -0.23988,-0.20955 -0.46567,-0.46567 z m -103.4816,-23.69534 c 0.12224,-0.0489 0.26829,-0.0429 0.32456,0.0134 0.0563,0.0563 -0.0437,0.0963 -0.22225,0.0889 -0.19727,-0.008 -0.23739,-0.0482 -0.10231,-0.10231 z m 3.21733,0 c 0.12225,-0.0489 0.2683,-0.0429 0.32457,0.0134 0.0563,0.0563 -0.0438,0.0963 -0.22225,0.0889 -0.19728,-0.008 -0.23739,-0.0482 -0.10232,-0.10231 z m -27.26266,-0.33867 c 0.12223,-0.0489 0.26829,-0.0429 0.32455,0.0134 0.0563,0.0563 -0.0437,0.0963 -0.22225,0.0889 -0.19726,-0.008 -0.23738,-0.0482 -0.1023,-0.1023 z m 51.308,0 c 0.12224,-0.0489 0.26829,-0.0429 0.32456,0.0134 0.0563,0.0563 -0.0438,0.0963 -0.22225,0.0889 -0.19727,-0.008 -0.23739,-0.0482 -0.10231,-0.1023 z m -49.276,-0.16933 c 0.12223,-0.0489 0.26829,-0.0429 0.32455,0.0134 0.0563,0.0563 -0.0437,0.0963 -0.22225,0.0889 -0.19726,-0.008 -0.23738,-0.0482 -0.1023,-0.10231 z m 47.244,0 c 0.12224,-0.0489 0.26829,-0.0429 0.32456,0.0134 0.0563,0.0563 -0.0438,0.0963 -0.22225,0.0889 -0.19727,-0.008 -0.23739,-0.0482 -0.10231,-0.10231 z m -45.04267,-0.16933 c 0.12224,-0.0489 0.26829,-0.0429 0.32456,0.0134 0.0563,0.0563 -0.0437,0.0963 -0.22225,0.0889 -0.19727,-0.008 -0.23739,-0.0482 -0.10231,-0.10231 z m 42.84133,0 c 0.12225,-0.0489 0.2683,-0.0429 0.32457,0.0134 0.0563,0.0563 -0.0438,0.0963 -0.22225,0.0889 -0.19728,-0.008 -0.23739,-0.0482 -0.10232,-0.10231 z m -40.31191,-0.16581 c 0.11641,-0.047 0.30691,-0.047 0.42333,0 0.11642,0.047 0.0212,0.0854 -0.21167,0.0854 -0.23283,0 -0.32808,-0.0384 -0.21166,-0.0854 z m 37.592,0 c 0.11641,-0.047 0.30691,-0.047 0.42333,0 0.11642,0.047 0.0212,0.0854 -0.21167,0.0854 -0.23283,0 -0.32808,-0.0384 -0.21166,-0.0854 z m -34.62545,-0.17453 c 0.16476,-0.0429 0.39336,-0.0401 0.508,0.006 0.11465,0.0464 -0.0202,0.0815 -0.29955,0.0781 -0.2794,-0.003 -0.3732,-0.0414 -0.20845,-0.0843 z m 31.74678,0.005 c 0.11642,-0.047 0.30692,-0.047 0.42333,0 0.11642,0.047 0.0212,0.0854 -0.21166,0.0854 -0.23284,0 -0.32809,-0.0384 -0.21167,-0.0854 z m -28.194,-0.17392 c 0.16298,-0.0426 0.42968,-0.0426 0.59267,0 0.16298,0.0426 0.0296,0.0774 -0.29634,0.0774 -0.32596,0 -0.45931,-0.0348 -0.29633,-0.0774 z m 24.384,0 c 0.16298,-0.0426 0.42968,-0.0426 0.59267,0 0.16298,0.0426 0.0296,0.0774 -0.29634,0.0774 -0.32596,0 -0.45931,-0.0348 -0.29633,-0.0774 z m -19.05,-0.1751 c 0.30268,-0.0376 0.79798,-0.0376 1.10067,0 0.30268,0.0376 0.055,0.0683 -0.55034,0.0683 -0.60536,0 -0.85301,-0.0307 -0.55033,-0.0683 z m 13.208,0 c 0.30268,-0.0376 0.79798,-0.0376 1.10067,0 0.30268,0.0376 0.055,0.0683 -0.55034,0.0683 -0.60536,0 -0.85301,-0.0307 -0.55033,-0.0683 z m 26.08792,-14.21718 c 0.12224,-0.0489 0.26829,-0.0429 0.32456,0.0134 0.0563,0.0563 -0.0438,0.0963 -0.22225,0.0889 -0.19727,-0.008 -0.23739,-0.0482 -0.10231,-0.1023 z m -3.556,-0.33866 c 0.12224,-0.0489 0.26829,-0.0429 0.32456,0.0134 0.0563,0.0563 -0.0438,0.0963 -0.22225,0.0889 -0.19727,-0.008 -0.23739,-0.0482 -0.10231,-0.1023 z m -55.372,-0.16934 c 0.12223,-0.0489 0.26829,-0.0429 0.32455,0.0134 0.0563,0.0563 -0.0437,0.0963 -0.22225,0.0889 -0.19726,-0.008 -0.23738,-0.0482 -0.1023,-0.1023 z m 53.34,0 c 0.12224,-0.0489 0.26829,-0.0429 0.32456,0.0134 0.0563,0.0563 -0.0438,0.0963 -0.22225,0.0889 -0.19727,-0.008 -0.23739,-0.0482 -0.10231,-0.1023 z m -51.13867,-0.16933 c 0.12224,-0.0489 0.26829,-0.0429 0.32456,0.0134 0.0563,0.0563 -0.0437,0.0963 -0.22225,0.0889 -0.19727,-0.008 -0.23739,-0.0482 -0.10231,-0.10231 z m 48.93733,0 c 0.12225,-0.0489 0.2683,-0.0429 0.32457,0.0134 0.0563,0.0563 -0.0438,0.0963 -0.22225,0.0889 -0.19728,-0.008 -0.23739,-0.0482 -0.10232,-0.10231 z m -46.56666,-0.16933 c 0.12223,-0.0489 0.26829,-0.0429 0.32455,0.0134 0.0563,0.0563 -0.0437,0.0963 -0.22225,0.0889 -0.19726,-0.008 -0.23738,-0.0482 -0.1023,-0.1023 z m 44.18541,0.004 c 0.11642,-0.047 0.30692,-0.047 0.42334,0 0.11641,0.047 0.0212,0.0854 -0.21167,0.0854 -0.23283,0 -0.32808,-0.0384 -0.21167,-0.0854 z m -41.656,-0.16933 c 0.11642,-0.047 0.30692,-0.047 0.42334,0 0.11641,0.047 0.0212,0.0854 -0.21167,0.0854 -0.23283,0 -0.32808,-0.0384 -0.21167,-0.0854 z m 38.94667,0 c 0.11642,-0.047 0.30692,-0.047 0.42333,0 0.11642,0.047 0.0212,0.0854 -0.21166,0.0854 -0.23284,0 -0.32809,-0.0384 -0.21167,-0.0854 z m -35.81078,-0.17454 c 0.16476,-0.0429 0.39336,-0.0401 0.508,0.006 0.11465,0.0464 -0.0202,0.0815 -0.29955,0.0781 -0.2794,-0.003 -0.3732,-0.0414 -0.20845,-0.0843 z m 32.68133,0 c 0.16476,-0.0429 0.39336,-0.0401 0.508,0.006 0.11466,0.0464 -0.0202,0.0815 -0.29955,0.0781 -0.2794,-0.003 -0.37319,-0.0414 -0.20845,-0.0843 z m -28.87257,-0.17175 c 0.21064,-0.0405 0.51544,-0.039 0.67734,0.003 0.16188,0.0424 -0.0105,0.0755 -0.38299,0.0736 -0.37253,-0.002 -0.505,-0.0366 -0.29435,-0.0771 z m 24.892,0 c 0.21064,-0.0405 0.51544,-0.039 0.67734,0.003 0.16188,0.0424 -0.0105,0.0755 -0.38299,0.0736 -0.37253,-0.002 -0.505,-0.0366 -0.29435,-0.0771 z M 123.5438,423.0701 c 0.3006,-0.0374 0.834,-0.038 1.18533,-0.001 0.35133,0.0367 0.10538,0.0673 -0.54656,0.068 -0.65193,6.8e-4 -0.93937,-0.0292 -0.63877,-0.0666 z m 12.87311,-3.4e-4 c 0.30268,-0.0376 0.79798,-0.0376 1.10066,0 0.30269,0.0376 0.055,0.0683 -0.55033,0.0683 -0.60537,0 -0.85302,-0.0307 -0.55033,-0.0683 z"
         id="path314" /><path
         style="fill:#000000;fill-opacity:1;stroke-width:0.169333"
         d="m -24.259693,614.75065 c -0.210628,-0.26858 -0.204639,-0.27455 0.06393,-0.0639 0.282067,0.22122 0.371768,0.36028 0.2324,0.36028 -0.03516,0 -0.168513,-0.13335 -0.296334,-0.29634 z m 309.224263,0.2324 c 0,-0.0352 0.13335,-0.16851 0.29634,-0.29634 0.26858,-0.21061 0.27455,-0.20464 0.0639,0.0639 -0.22122,0.28206 -0.36028,0.37178 -0.36028,0.2324 z m -313.270402,-4.12706 -1.435594,-1.48167 1.481667,1.43559 c 0.814916,0.78959 1.481666,1.45634 1.481666,1.48167 0,0.12321 -0.194401,-0.0595 -1.527739,-1.43559 z m 316.318402,1.26576 c 0,-0.0256 0.59055,-0.61617 1.31234,-1.31233 l 1.31233,-1.26577 -1.26577,1.31234 c -1.17561,1.21886 -1.3589,1.3896 -1.3589,1.26576 z m -146.812,-3.0861 c 0.31595,-0.32596 0.61253,-0.59266 0.6591,-0.59266 0.0466,0 -0.17382,0.2667 -0.48976,0.59266 -0.31594,0.32597 -0.61253,0.59267 -0.6591,0.59267 -0.0466,0 0.17382,-0.2667 0.48976,-0.59267 z m -21.60608,-0.127 -0.32258,-0.381 0.381,0.32258 c 0.35804,0.30314 0.45808,0.43942 0.32258,0.43942 -0.0321,0 -0.20359,-0.17145 -0.381,-0.381 z m -151.812849,-2.11666 c -0.210629,-0.26858 -0.20464,-0.27456 0.06393,-0.0639 0.162983,0.12783 0.296333,0.26118 0.296333,0.29633 0,0.13938 -0.139055,0.0497 -0.360266,-0.23239 z m 30.4123915,-2.11667 -1.1807918,-1.22767 1.2276666,1.1808 c 0.6752167,0.64943 1.2276667,1.20188 1.2276667,1.22767 0,0.1242 -0.17782201,-0.0405 -1.2745415,-1.1808 z m 264.5032075,0.0423 c 0.64694,-0.65193 1.21436,-1.18533 1.26092,-1.18533 0.0466,0 -0.44465,0.5334 -1.09159,1.18533 -0.64693,0.65194 -1.21435,1.18534 -1.26092,1.18534 -0.0466,0 0.44465,-0.5334 1.09159,-1.18534 z m 3.47133,-3.61994 c 0,-0.0352 0.13335,-0.1685 0.29634,-0.29633 0.26858,-0.21062 0.27455,-0.20464 0.0639,0.0639 -0.22122,0.28206 -0.36028,0.37177 -0.36028,0.23239 z M 0.12430717,508.40932 c -0.21062865,-0.26857 -0.20463933,-0.27456 0.0639335,-0.0639 0.16298333,0.12782 0.29633333,0.26117 0.29633333,0.29633 0,0.13937 -0.13905484,0.0497 -0.36026683,-0.2324 z M -31.519426,481.54839 c 0,-0.0352 0.13335,-0.16852 0.296333,-0.29634 0.268573,-0.21063 0.274562,-0.20464 0.06393,0.0639 -0.221212,0.28206 -0.360267,0.37176 -0.360267,0.2324 z m 323.664576,-0.31707 -0.32258,-0.381 0.381,0.32258 c 0.35804,0.30314 0.45808,0.43942 0.32258,0.43942 -0.0321,0 -0.20359,-0.17145 -0.381,-0.381 z m -317.314576,-6.05367 c 0.16857,-0.18626 0.34459,-0.33866 0.391157,-0.33866 0.04657,0 -0.05325,0.1524 -0.221824,0.33866 -0.168569,0.18627 -0.34459,0.33867 -0.391156,0.33867 -0.04657,0 0.05325,-0.1524 0.221823,-0.33867 z m 311.297726,0.0423 c -0.21062,-0.26858 -0.20464,-0.27457 0.0639,-0.0639 0.16298,0.12782 0.29633,0.26117 0.29633,0.29634 0,0.13936 -0.13905,0.0497 -0.36027,-0.2324 z m -144.94054,-1.18534 -0.41052,-0.46566 0.46567,0.41051 c 0.25611,0.22579 0.46566,0.43534 0.46566,0.46567 0,0.1328 -0.13712,0.0247 -0.52081,-0.41052 z"
         id="path312" /><path
         style="fill:#000000;fill-opacity:1;stroke-width:0.169333"
         d="m 128.11957,666.73638 c 1.32715,-0.0286 3.49885,-0.0286 4.826,0 1.32715,0.0286 0.2413,0.052 -2.413,0.052 -2.6543,0 -3.74015,-0.0234 -2.413,-0.052 z m -8.382,-0.15945 c 0.16299,-0.0426 0.42969,-0.0426 0.59267,0 0.16298,0.0426 0.0296,0.0774 -0.29633,0.0774 -0.32597,0 -0.45932,-0.0349 -0.29634,-0.0774 z m 20.99734,0 c 0.16298,-0.0426 0.42968,-0.0426 0.59266,0 0.16299,0.0426 0.0296,0.0774 -0.29633,0.0774 -0.32597,0 -0.45932,-0.0349 -0.29633,-0.0774 z m -24.88879,-0.16996 c 0.16477,-0.0429 0.39337,-0.0401 0.508,0.006 0.11466,0.0464 -0.0202,0.0815 -0.29955,0.0781 -0.2794,-0.003 -0.37319,-0.0414 -0.20845,-0.0843 z m 29.03745,0.005 c 0.11642,-0.047 0.30692,-0.047 0.42334,0 0.11641,0.047 0.0212,0.0854 -0.21167,0.0854 -0.23283,0 -0.32808,-0.0384 -0.21167,-0.0854 z m -32.17333,-0.16933 c 0.11642,-0.047 0.30692,-0.047 0.42333,0 0.11642,0.047 0.0212,0.0854 -0.21166,0.0854 -0.23284,0 -0.32809,-0.0384 -0.21167,-0.0854 z m 35.22133,0 c 0.11642,-0.047 0.30692,-0.047 0.42334,0 0.11641,0.047 0.0212,0.0854 -0.21167,0.0854 -0.23283,0 -0.32808,-0.0384 -0.21167,-0.0854 z m -37.75075,-0.17286 c 0.12225,-0.0489 0.2683,-0.0429 0.32457,0.0134 0.0563,0.0563 -0.0438,0.0963 -0.22225,0.089 -0.19728,-0.008 -0.23739,-0.0483 -0.10232,-0.10231 z m 40.47067,0 c 0.12224,-0.0489 0.26829,-0.0429 0.32456,0.0134 0.0563,0.0563 -0.0437,0.0963 -0.22225,0.089 -0.19727,-0.008 -0.23739,-0.0483 -0.10231,-0.10231 z m -42.84133,-0.16933 c 0.12223,-0.0489 0.26829,-0.0429 0.32455,0.0134 0.0563,0.0563 -0.0437,0.0963 -0.22225,0.0889 -0.19726,-0.008 -0.23738,-0.0483 -0.1023,-0.10231 z m 45.212,0 c 0.12224,-0.0489 0.26829,-0.0429 0.32456,0.0134 0.0563,0.0563 -0.0438,0.0963 -0.22225,0.0889 -0.19727,-0.008 -0.23739,-0.0483 -0.10231,-0.10231 z m -47.244,-0.16933 c 0.12223,-0.0489 0.26829,-0.0429 0.32455,0.0134 0.0563,0.0563 -0.0437,0.0963 -0.22225,0.089 -0.19726,-0.008 -0.23738,-0.0483 -0.1023,-0.10232 z m 8.29733,-13.37734 c 0.12224,-0.0489 0.26829,-0.0429 0.32456,0.0134 0.0563,0.0563 -0.0437,0.0963 -0.22225,0.089 -0.19727,-0.008 -0.23739,-0.0483 -0.10231,-0.10231 z m 32.68133,0 c 0.12225,-0.0489 0.2683,-0.0429 0.32457,0.0134 0.0563,0.0563 -0.0438,0.0963 -0.22225,0.089 -0.19728,-0.008 -0.23739,-0.0483 -0.10232,-0.10231 z m -34.88266,-0.16933 c 0.12224,-0.0489 0.26829,-0.0429 0.32456,0.0134 0.0563,0.0563 -0.0438,0.0963 -0.22225,0.0889 -0.19727,-0.008 -0.23739,-0.0483 -0.10231,-0.10231 z m 37.084,0 c 0.12224,-0.0489 0.26829,-0.0429 0.32456,0.0134 0.0563,0.0563 -0.0438,0.0963 -0.22225,0.0889 -0.19727,-0.008 -0.23739,-0.0483 -0.10231,-0.10231 z m -39.116,-0.16933 c 0.12224,-0.0489 0.26829,-0.0429 0.32456,0.0134 0.0563,0.0563 -0.0438,0.0963 -0.22225,0.089 -0.19727,-0.008 -0.23739,-0.0483 -0.10231,-0.10232 z m 41.148,0 c 0.12224,-0.0489 0.26829,-0.0429 0.32456,0.0134 0.0563,0.0563 -0.0438,0.0963 -0.22225,0.089 -0.19727,-0.008 -0.23739,-0.0483 -0.10231,-0.10232 z M 84.995276,568.72021 c 0.0081,-0.19727 0.04825,-0.23738 0.102305,-0.10231 0.04891,0.12225 0.0429,0.2683 -0.01336,0.32456 -0.05627,0.0563 -0.09629,-0.0437 -0.08894,-0.22225 z m -0.169333,-2.20133 c 0.0081,-0.19727 0.04825,-0.23739 0.102304,-0.10231 0.04892,0.12224 0.0429,0.26829 -0.01336,0.32456 -0.05627,0.0563 -0.09629,-0.0438 -0.08894,-0.22225 z m 91.270657,0 c 0.008,-0.19727 0.0483,-0.23739 0.10231,-0.10231 0.0489,0.12224 0.0429,0.26829 -0.0134,0.32456 -0.0563,0.0563 -0.0963,-0.0438 -0.089,-0.22225 z m -91.426623,-2.77989 c 0,-0.23284 0.03843,-0.32809 0.08541,-0.21167 0.04698,0.11642 0.04698,0.30692 0,0.42333 -0.04698,0.11642 -0.08541,0.0212 -0.08541,-0.21166 z m 91.595953,0.0706 c 0.008,-0.19728 0.0483,-0.23739 0.10232,-0.10231 0.0489,0.12224 0.0429,0.26829 -0.0134,0.32456 -0.0563,0.0563 -0.0963,-0.0438 -0.089,-0.22225 z m -91.759011,-3.37256 c 0.0035,-0.2794 0.0414,-0.3732 0.08434,-0.20845 0.04293,0.16476 0.04011,0.39336 -0.0063,0.508 -0.04639,0.11465 -0.08151,-0.0201 -0.07806,-0.29955 z m 91.947991,0 c 0.003,-0.2794 0.0414,-0.3732 0.0844,-0.20845 0.0429,0.16476 0.0401,0.39336 -0.006,0.508 -0.0464,0.11465 -0.0815,-0.0201 -0.0781,-0.29955 z m -74.35697,-3.23144 c 0.008,-0.19728 0.0483,-0.23739 0.10231,-0.10231 0.0489,0.12224 0.0429,0.26829 -0.0134,0.32456 -0.0563,0.0563 -0.0963,-0.0438 -0.0889,-0.22225 z m -17.742624,-1.59456 c 0,-0.51224 0.03175,-0.72179 0.07054,-0.46567 0.0388,0.25612 0.0388,0.67522 0,0.93133 -0.0388,0.25612 -0.07054,0.0466 -0.07054,-0.46566 z m 92.284354,0.0847 c 0.002,-0.46566 0.0342,-0.63606 0.0731,-0.37868 0.0389,0.25741 0.0379,0.63841 -0.002,0.84667 -0.0402,0.20828 -0.072,-0.002 -0.0708,-0.46799 z m -74.71106,-0.5221 c 0.008,-0.19728 0.0482,-0.23739 0.1023,-0.10231 0.0489,0.12224 0.0429,0.26829 -0.0134,0.32456 -0.0563,0.0563 -0.0963,-0.0438 -0.0889,-0.22225 z m 57.23466,-2.37067 c 0.008,-0.19727 0.0483,-0.23739 0.10231,-0.10231 0.0489,0.12224 0.0429,0.26829 -0.0134,0.32456 -0.0563,0.0563 -0.0963,-0.0438 -0.0889,-0.22225 z m -57.40399,-0.16933 c 0.008,-0.19728 0.0482,-0.23739 0.1023,-0.10231 0.0489,0.12224 0.0429,0.26829 -0.0134,0.32456 -0.0563,0.0563 -0.0963,-0.0438 -0.0889,-0.22225 z m -160.020004,-2.20134 c 0.0081,-0.19727 0.04825,-0.23738 0.102305,-0.10231 0.04892,0.12225 0.0429,0.2683 -0.01337,0.32456 -0.05627,0.0563 -0.09629,-0.0437 -0.08894,-0.22225 z m 377.443994,0 c 0.008,-0.19727 0.0483,-0.23738 0.10231,-0.10231 0.0489,0.12225 0.0429,0.2683 -0.0134,0.32456 -0.0563,0.0563 -0.0963,-0.0437 -0.089,-0.22225 z m -159.83103,-0.83256 c 0.003,-0.2794 0.0414,-0.37319 0.0844,-0.20845 0.0429,0.16477 0.0401,0.39337 -0.006,0.508 -0.0464,0.11466 -0.0815,-0.0201 -0.0781,-0.29955 z m -57.73638,-0.254 c 0,-0.32596 0.0349,-0.45931 0.0774,-0.29633 0.0426,0.16298 0.0426,0.42968 0,0.59267 -0.0426,0.16298 -0.0774,0.0296 -0.0774,-0.29634 z m -160.016583,-2.11666 c 0.0019,-0.37254 0.03656,-0.50501 0.07706,-0.29436 0.0405,0.21064 0.03897,0.51544 -0.0034,0.67734 -0.04238,0.16188 -0.07552,-0.0105 -0.07364,-0.38298 z m 377.782673,0 c 0.002,-0.37254 0.0366,-0.50501 0.0771,-0.29436 0.0405,0.21064 0.039,0.51544 -0.003,0.67734 -0.0424,0.16188 -0.0755,-0.0105 -0.0736,-0.38298 z m -196.17304,-0.8845 c 0.30268,-0.0376 0.79798,-0.0376 1.10066,0 0.30269,0.0376 0.055,0.0683 -0.55033,0.0683 -0.60537,0 -0.85302,-0.0307 -0.55033,-0.0683 z m 13.71903,0 c 0.30436,-0.0377 0.76156,-0.0369 1.016,0.002 0.25446,0.0386 0.005,0.0695 -0.55337,0.0685 -0.5588,-0.002 -0.76697,-0.0326 -0.46263,-0.0702 z m -19.22237,-0.16334 c 0.16299,-0.0426 0.42969,-0.0426 0.59267,0 0.16298,0.0426 0.0296,0.0774 -0.29633,0.0774 -0.32597,0 -0.45932,-0.0349 -0.29634,-0.0774 z m 25.06134,0 c 0.16298,-0.0426 0.42968,-0.0426 0.59266,0 0.16299,0.0426 0.0296,0.0774 -0.29633,0.0774 -0.32597,0 -0.45932,-0.0349 -0.29633,-0.0774 z m -173.4263,-0.32072 c 0.0081,-0.19727 0.04825,-0.23738 0.102304,-0.10231 0.04892,0.12225 0.0429,0.2683 -0.01336,0.32456 -0.05627,0.0563 -0.09629,-0.0437 -0.08894,-0.22225 z m 144.64285,0.15076 c 0.16476,-0.0429 0.39336,-0.0401 0.508,0.006 0.11465,0.0464 -0.0202,0.0815 -0.29955,0.0781 -0.2794,-0.003 -0.3732,-0.0414 -0.20845,-0.0843 z m 32.76278,0.005 c 0.11642,-0.047 0.30692,-0.047 0.42333,0 0.11642,0.047 0.0212,0.0854 -0.21166,0.0854 -0.23284,0 -0.32809,-0.0384 -0.21167,-0.0854 z m 144.83569,-0.15595 c 0.008,-0.19728 0.0483,-0.23739 0.10232,-0.10232 0.0489,0.12225 0.0429,0.2683 -0.0134,0.32457 -0.0563,0.0563 -0.0963,-0.0438 -0.0889,-0.22225 z m -180.73436,-0.0134 c 0.11642,-0.047 0.30692,-0.047 0.42334,0 0.11641,0.047 0.0212,0.0854 -0.21167,0.0854 -0.23283,0 -0.32808,-0.0384 -0.21167,-0.0854 z m 38.94667,0 c 0.11642,-0.047 0.30692,-0.047 0.42333,0 0.11642,0.047 0.0212,0.0854 -0.21166,0.0854 -0.23284,0 -0.32809,-0.0384 -0.21167,-0.0854 z m -41.47608,-0.17286 c 0.12223,-0.0489 0.26829,-0.0429 0.32455,0.0134 0.0563,0.0563 -0.0437,0.0963 -0.22225,0.0889 -0.19726,-0.008 -0.23738,-0.0483 -0.1023,-0.10231 z m 44.196,0 c 0.12224,-0.0489 0.26829,-0.0429 0.32456,0.0134 0.0563,0.0563 -0.0438,0.0963 -0.22225,0.0889 -0.19727,-0.008 -0.23739,-0.0483 -0.10231,-0.10231 z m -46.56667,-0.16933 c 0.12224,-0.0489 0.26829,-0.0429 0.32456,0.0134 0.0563,0.0563 -0.0437,0.0963 -0.22225,0.089 -0.19727,-0.008 -0.23739,-0.0483 -0.10231,-0.10231 z m 48.93733,0 c 0.12225,-0.0489 0.2683,-0.0429 0.32457,0.0134 0.0563,0.0563 -0.0438,0.0963 -0.22225,0.089 -0.19728,-0.008 -0.23739,-0.0483 -0.10232,-0.10231 z m -70.566877,-2.0151 c 0.0081,-0.19727 0.04825,-0.23739 0.102304,-0.10231 0.04892,0.12224 0.0429,0.26829 -0.01336,0.32456 -0.05627,0.0563 -0.09629,-0.0438 -0.08894,-0.22225 z M -30.795973,542.4028 c 0,-0.4191 0.03302,-0.59055 0.07338,-0.381 0.04036,0.20955 0.04036,0.55245 0,0.762 -0.04036,0.20955 -0.07338,0.0381 -0.07338,-0.381 z m 322.580003,0 c 0,-0.4191 0.033,-0.59055 0.0734,-0.381 0.0404,0.20955 0.0404,0.55245 0,0.762 -0.0404,0.20955 -0.0734,0.0381 -0.0734,-0.381 z m -350.184753,-0.59267 c 0.0019,-0.37253 0.03656,-0.505 0.07706,-0.29435 0.0405,0.21063 0.03897,0.51543 -0.0034,0.67733 -0.04238,0.16188 -0.07552,-0.0105 -0.07364,-0.38298 z m 377.782673,0 c 0.002,-0.37253 0.0366,-0.505 0.0771,-0.29435 0.0405,0.21063 0.039,0.51543 -0.003,0.67733 -0.0424,0.16188 -0.0755,-0.0105 -0.0736,-0.38298 z m -377.642674,-3.23144 c 0.0081,-0.19727 0.04825,-0.23739 0.102305,-0.10231 0.04892,0.12224 0.0429,0.26829 -0.01337,0.32456 -0.05627,0.0563 -0.09629,-0.0437 -0.08894,-0.22225 z m 377.443994,0 c 0.008,-0.19727 0.0483,-0.23739 0.10231,-0.10231 0.0489,0.12224 0.0429,0.26829 -0.0134,0.32456 -0.0563,0.0563 -0.0963,-0.0437 -0.089,-0.22225 z m -27.39924,-0.74789 c 0,-0.4191 0.033,-0.59055 0.0734,-0.381 0.0404,0.20955 0.0404,0.55245 0,0.762 -0.0404,0.20955 -0.0734,0.0381 -0.0734,-0.381 z m -322.580003,-0.16934 c 0,-0.4191 0.03302,-0.59055 0.07338,-0.381 0.04036,0.20955 0.04036,0.55245 0,0.762 -0.04036,0.20955 -0.07338,0.0381 -0.07338,-0.381 z m 0.136583,-3.3161 c 0.0081,-0.19728 0.04825,-0.23739 0.102304,-0.10231 0.04892,0.12224 0.0429,0.26829 -0.01336,0.32456 -0.05627,0.0563 -0.09629,-0.0438 -0.08894,-0.22225 z m 322.24132,0 c 0.008,-0.19728 0.0483,-0.23739 0.10232,-0.10231 0.0489,0.12224 0.0429,0.26829 -0.0134,0.32456 -0.0563,0.0563 -0.0963,-0.0438 -0.0889,-0.22225 z m -0.16933,-2.032 c 0.008,-0.19728 0.0483,-0.23739 0.10231,-0.10231 0.0489,0.12224 0.0429,0.26829 -0.0134,0.32456 -0.0563,0.0563 -0.0963,-0.0438 -0.089,-0.22225 z M 121.00757,516.03682 c 0.20955,-0.0404 0.55245,-0.0404 0.762,0 0.20955,0.0404 0.0381,0.0734 -0.381,0.0734 -0.4191,0 -0.59055,-0.033 -0.381,-0.0734 z m 18.288,0 c 0.20955,-0.0404 0.55245,-0.0404 0.762,0 0.20955,0.0404 0.0381,0.0734 -0.381,0.0734 -0.4191,0 -0.59055,-0.033 -0.381,-0.0734 z m -22.60278,-0.16718 c 0.16476,-0.0429 0.39336,-0.0401 0.508,0.006 0.11466,0.0464 -0.0202,0.0815 -0.29955,0.0781 -0.2794,-0.003 -0.37319,-0.0414 -0.20845,-0.0843 z m 27.26267,0 c 0.16476,-0.0429 0.39336,-0.0401 0.508,0.006 0.11465,0.0464 -0.0202,0.0815 -0.29955,0.0781 -0.2794,-0.003 -0.3732,-0.0414 -0.20845,-0.0843 z m -30.73722,-0.16413 c 0.11642,-0.047 0.30692,-0.047 0.42333,0 0.11642,0.047 0.0212,0.0854 -0.21166,0.0854 -0.23284,0 -0.32809,-0.0384 -0.21167,-0.0854 z m 34.20533,0 c 0.11642,-0.047 0.30692,-0.047 0.42334,0 0.11641,0.047 0.0212,0.0854 -0.21167,0.0854 -0.23283,0 -0.32808,-0.0384 -0.21167,-0.0854 z m -36.90408,-0.17286 c 0.12224,-0.0489 0.26829,-0.0429 0.32456,0.0134 0.0563,0.0563 -0.0438,0.0963 -0.22225,0.0889 -0.19727,-0.008 -0.23739,-0.0483 -0.10231,-0.1023 z m 39.79333,0 c 0.12225,-0.0489 0.2683,-0.0429 0.32457,0.0134 0.0563,0.0563 -0.0438,0.0963 -0.22225,0.0889 -0.19728,-0.008 -0.23739,-0.0483 -0.10232,-0.1023 z m -42.164,-0.16934 c 0.12224,-0.0489 0.26829,-0.0429 0.32456,0.0134 0.0563,0.0563 -0.0438,0.0963 -0.22225,0.0889 -0.19726,-0.008 -0.23739,-0.0482 -0.10231,-0.1023 z m 44.53467,0 c 0.12224,-0.0489 0.26829,-0.0429 0.32456,0.0134 0.0563,0.0563 -0.0437,0.0963 -0.22225,0.0889 -0.19727,-0.008 -0.23739,-0.0482 -0.10231,-0.1023 z m -46.736,-0.16933 c 0.12224,-0.0489 0.26829,-0.0429 0.32456,0.0134 0.0563,0.0563 -0.0437,0.0963 -0.22225,0.0889 -0.19727,-0.008 -0.23739,-0.0483 -0.10231,-0.10231 z m 48.93733,0 c 0.12225,-0.0489 0.2683,-0.0429 0.32457,0.0134 0.0563,0.0563 -0.0438,0.0963 -0.22225,0.0889 -0.19728,-0.008 -0.23739,-0.0483 -0.10232,-0.10231 z m 84.40246,-37.73033 c 0.002,-0.37253 0.0366,-0.50499 0.0771,-0.29436 0.0405,0.21064 0.039,0.51544 -0.003,0.67734 -0.0424,0.16189 -0.0755,-0.0104 -0.0737,-0.38298 z m -217.603028,0 c 0.0035,-0.2794 0.0414,-0.3732 0.08433,-0.20844 0.04293,0.16475 0.04011,0.39335 -0.0063,0.508 -0.04639,0.11464 -0.08151,-0.0202 -0.07806,-0.29956 z M 129.89757,440.17163 c 0.34925,-0.0365 0.92075,-0.0365 1.27,0 0.34925,0.0365 0.0635,0.0664 -0.635,0.0664 -0.6985,0 -0.98425,-0.0299 -0.635,-0.0664 z m -25.64341,-0.33099 c 0.12223,-0.0489 0.26829,-0.0429 0.32455,0.0134 0.0563,0.0563 -0.0437,0.0963 -0.22225,0.0889 -0.19726,-0.008 -0.23738,-0.0482 -0.1023,-0.1023 z m 4.23333,-0.33866 c 0.12224,-0.0489 0.26829,-0.0429 0.32456,0.0134 0.0563,0.0563 -0.0438,0.0963 -0.22225,0.0889 -0.19727,-0.008 -0.23739,-0.0482 -0.10231,-0.10231 z m 43.85733,0 c 0.12225,-0.0489 0.2683,-0.0429 0.32457,0.0134 0.0563,0.0563 -0.0438,0.0963 -0.22225,0.0889 -0.19728,-0.008 -0.23739,-0.0482 -0.10232,-0.10231 z m -41.48666,-0.16934 c 0.12224,-0.0489 0.26829,-0.0429 0.32456,0.0134 0.0563,0.0563 -0.0438,0.0963 -0.22225,0.0889 -0.19727,-0.008 -0.23739,-0.0482 -0.10231,-0.1023 z m 39.116,0 c 0.12224,-0.0489 0.26829,-0.0429 0.32456,0.0134 0.0563,0.0563 -0.0438,0.0963 -0.22225,0.0889 -0.19727,-0.008 -0.23739,-0.0482 -0.10231,-0.1023 z m -36.32937,-0.171 c 0.16476,-0.0429 0.39336,-0.0401 0.508,0.006 0.11466,0.0464 -0.0202,0.0815 -0.29955,0.0781 -0.2794,-0.003 -0.37319,-0.0414 -0.20845,-0.0843 z m 33.44012,0.005 c 0.11641,-0.047 0.30691,-0.047 0.42333,0 0.11642,0.047 0.0212,0.0854 -0.21167,0.0854 -0.23283,0 -0.32808,-0.0384 -0.21166,-0.0854 z m -30.05667,-0.17392 c 0.16298,-0.0426 0.42968,-0.0426 0.59267,0 0.16298,0.0426 0.0296,0.0774 -0.29634,0.0774 -0.32596,0 -0.45931,-0.0348 -0.29633,-0.0774 z m 26.58855,-6.7e-4 c 0.16476,-0.0429 0.39336,-0.0401 0.508,0.006 0.11466,0.0464 -0.0202,0.0815 -0.29955,0.0781 -0.2794,-0.003 -0.37319,-0.0414 -0.20845,-0.0843 z m -21.8449,-0.1735 c 0.25741,-0.0389 0.63841,-0.0379 0.84667,0.002 0.20828,0.0402 -0.002,0.072 -0.46799,0.0708 -0.46566,-10e-4 -0.63606,-0.0342 -0.37868,-0.0731 z m 16.764,0 c 0.25741,-0.0389 0.63841,-0.0379 0.84667,0.002 0.20828,0.0402 -0.002,0.072 -0.46799,0.0708 -0.46566,-10e-4 -0.63606,-0.0342 -0.37868,-0.0731 z m -34.28173,-14.72611 c 0.12223,-0.0489 0.26829,-0.0429 0.32455,0.0134 0.0563,0.0563 -0.0437,0.0963 -0.22225,0.0889 -0.19726,-0.008 -0.23738,-0.0482 -0.1023,-0.1023 z m 52.324,0 c 0.12224,-0.0489 0.26829,-0.0429 0.32456,0.0134 0.0563,0.0563 -0.0438,0.0963 -0.22225,0.0889 -0.19727,-0.008 -0.23739,-0.0482 -0.10231,-0.1023 z m -50.12267,-0.16933 c 0.12224,-0.0489 0.26829,-0.0429 0.32456,0.0134 0.0563,0.0563 -0.0438,0.0963 -0.22225,0.0889 -0.19727,-0.008 -0.23739,-0.0482 -0.10231,-0.10231 z m 47.92133,0 c 0.12225,-0.0489 0.2683,-0.0429 0.32457,0.0134 0.0563,0.0563 -0.0438,0.0963 -0.22225,0.0889 -0.19728,-0.008 -0.23739,-0.0482 -0.10232,-0.10231 z m -45.56125,-0.1658 c 0.11642,-0.047 0.30692,-0.047 0.42334,0 0.11641,0.047 0.0212,0.0854 -0.21167,0.0854 -0.23283,0 -0.32808,-0.0384 -0.21167,-0.0854 z m 43.01067,0 c 0.11642,-0.047 0.30692,-0.047 0.42333,0 0.11642,0.047 0.0212,0.0854 -0.21166,0.0854 -0.23284,0 -0.32809,-0.0384 -0.21167,-0.0854 z m -40.12142,-0.17287 c 0.12225,-0.0489 0.2683,-0.0429 0.32457,0.0134 0.0563,0.0563 -0.0438,0.0963 -0.22225,0.0889 -0.19728,-0.008 -0.23739,-0.0482 -0.10232,-0.1023 z m 37.41209,0.004 c 0.11641,-0.047 0.30691,-0.047 0.42333,0 0.11642,0.047 0.0212,0.0854 -0.21167,0.0854 -0.23283,0 -0.32808,-0.0384 -0.21166,-0.0854 z m -34.28679,-0.17454 c 0.16477,-0.0429 0.39337,-0.0401 0.508,0.006 0.11466,0.0464 -0.0202,0.0815 -0.29955,0.0781 -0.2794,-0.003 -0.37319,-0.0414 -0.20845,-0.0843 z m 30.988,0 c 0.16477,-0.0429 0.39337,-0.0401 0.508,0.006 0.11466,0.0464 -0.0202,0.0815 -0.29955,0.0781 -0.2794,-0.003 -0.37319,-0.0414 -0.20845,-0.0843 z m -26.84056,-0.17175 c 0.21063,-0.0405 0.51543,-0.039 0.67733,0.003 0.16188,0.0424 -0.0105,0.0755 -0.38298,0.0736 -0.37254,-0.002 -0.50501,-0.0366 -0.29435,-0.0771 z m 22.52133,0 c 0.21063,-0.0405 0.51543,-0.039 0.67733,0.003 0.16188,0.0424 -0.0105,0.0755 -0.38298,0.0736 -0.37253,-0.002 -0.505,-0.0366 -0.29435,-0.0771 z m -13.63332,-0.17624 c 1.46685,-0.0282 3.86715,-0.0282 5.334,0 1.46685,0.0282 0.2667,0.0513 -2.667,0.0513 -2.9337,0 -4.13385,-0.0231 -2.667,-0.0513 z"
         id="path310" /><path
         style="fill:#000000;fill-opacity:1;stroke-width:0.169333"
         d="m 147.12724,650.54305 c 0,-0.0352 0.13335,-0.16851 0.29633,-0.29634 0.26858,-0.21061 0.27456,-0.20463 0.0639,0.0639 -0.22121,0.28205 -0.36027,0.37177 -0.36027,0.23239 z m -33.71894,-0.40173 c -0.21062,-0.26858 -0.20464,-0.27456 0.0639,-0.0639 0.16298,0.12783 0.29633,0.26118 0.29633,0.29633 0,0.13938 -0.13905,0.0497 -0.36027,-0.23239 z m -2.11115,-2.11666 -0.32258,-0.381 0.381,0.32258 c 0.20955,0.17741 0.381,0.34886 0.381,0.381 0,0.1355 -0.13628,0.0354 -0.43942,-0.32258 z m 38.20076,0.14772 c 0,-0.0351 0.13335,-0.1685 0.29633,-0.29633 0.26858,-0.21062 0.27456,-0.20464 0.0639,0.0639 -0.22122,0.28206 -0.36027,0.37177 -0.36027,0.23239 z M -24.767693,614.24265 c -0.210628,-0.26858 -0.204639,-0.27455 0.06393,-0.0639 0.282067,0.22122 0.371768,0.36028 0.2324,0.36028 -0.03516,0 -0.168513,-0.13335 -0.296334,-0.29634 z m 310.240263,0.2324 c 0,-0.0352 0.13335,-0.16851 0.29634,-0.29634 0.26858,-0.21061 0.27455,-0.20464 0.0639,0.0639 -0.22122,0.28206 -0.36028,0.37178 -0.36028,0.2324 z m -145.288,-4.40267 c 0,-0.0351 0.13335,-0.1685 0.29634,-0.29633 0.26858,-0.21062 0.27455,-0.20464 0.0639,0.0639 -0.22122,0.28206 -0.36028,0.37177 -0.36028,0.23239 z m -19.8336,-0.40173 c -0.21062,-0.26858 -0.20464,-0.27455 0.0639,-0.0639 0.28206,0.22122 0.37177,0.36028 0.23239,0.36028 -0.0352,0 -0.1685,-0.13335 -0.29633,-0.29634 z m -1.35467,-1.35466 c -0.21062,-0.26858 -0.20464,-0.27456 0.0639,-0.0639 0.16298,0.12783 0.29633,0.26118 0.29633,0.29633 0,0.13938 -0.13905,0.0497 -0.36027,-0.23239 z m 173.24961,-0.61428 c 0,-0.0352 0.13335,-0.1685 0.29633,-0.29633 0.26858,-0.21062 0.27456,-0.20464 0.0639,0.0639 -0.22122,0.28206 -0.36027,0.37177 -0.36027,0.23239 z m -323.956269,-0.40172 c -0.210629,-0.26858 -0.20464,-0.27456 0.06393,-0.0639 0.282067,0.22121 0.371768,0.36027 0.2324,0.36027 -0.03516,0 -0.168512,-0.13335 -0.296333,-0.29633 z m 31.59161357,-0.93134 -0.49734724,-0.55033 0.55033334,0.49735 c 0.51298856,0.4636 0.6281674,0.60332 0.49734724,0.60332 -0.0291423,0 -0.27679227,-0.24765 -0.55033334,-0.55034 z M 260.58057,606.866 c 0,-0.0291 0.24765,-0.27679 0.55034,-0.55033 l 0.55033,-0.49735 -0.49735,0.55033 c -0.4636,0.513 -0.60332,0.62818 -0.60332,0.49735 z m -264.0859821,-3.88401 -0.4973472,-0.55034 0.5503333,0.49735 c 0.5129886,0.4636 0.6281674,0.60332 0.4973472,0.60332 -0.029142,0 -0.2767922,-0.24765 -0.5503333,-0.55033 z m 267.4726521,0.49735 c 0,-0.0291 0.24765,-0.2768 0.55033,-0.55034 l 0.55034,-0.49735 -0.49735,0.55034 c -0.4636,0.51299 -0.60332,0.62817 -0.60332,0.49735 z M -5.9716928,600.35732 c -0.2106287,-0.26858 -0.2046394,-0.27456 0.063933,-0.0639 0.1629833,0.12783 0.2963333,0.26118 0.2963333,0.29633 0,0.13938 -0.1390548,0.0497 -0.3602668,-0.23239 z m 272.6482628,0.23239 c 0,-0.0351 0.13335,-0.1685 0.29634,-0.29633 0.26858,-0.21062 0.27455,-0.20464 0.0639,0.0639 -0.22122,0.28206 -0.36028,0.37177 -0.36028,0.23239 z M 2.923819,511.20332 l -0.3225783,-0.381 0.381,0.32258 c 0.3580451,0.30314 0.4580873,0.43942 0.3225783,0.43942 -0.032133,0 -0.2035827,-0.17145 -0.381,-0.381 z m 255.032091,0.0423 c 0.16857,-0.18626 0.34459,-0.33866 0.39116,-0.33866 0.0466,0 -0.0533,0.1524 -0.22183,0.33866 -0.16857,0.18627 -0.34459,0.33867 -0.39116,0.33867 -0.0466,0 0.0533,-0.1524 0.22183,-0.33867 z m -257.23342436,-2.24366 -0.32257831,-0.381 0.381,0.32257 c 0.35804517,0.30315 0.45808727,0.43943 0.32257827,0.43943 -0.032133,0 -0.20358265,-0.17145 -0.38099996,-0.381 z m 259.43475436,0.0423 c 0.16857,-0.18627 0.34459,-0.33867 0.39116,-0.33867 0.0466,0 -0.0532,0.1524 -0.22183,0.33867 -0.16857,0.18627 -0.34459,0.33867 -0.39116,0.33867 -0.0466,0 0.0533,-0.1524 0.22183,-0.33867 z m 33.42173,-26.20433 c -0.21062,-0.26858 -0.20464,-0.27457 0.0639,-0.0639 0.16298,0.12782 0.29633,0.26117 0.29633,0.29634 0,0.13936 -0.13906,0.0497 -0.36027,-0.2324 z m -324.167063,-2.24367 c 0.16857,-0.18627 0.34459,-0.33867 0.391157,-0.33867 0.04657,0 -0.05325,0.1524 -0.221823,0.33867 -0.16857,0.18627 -0.34459,0.33867 -0.391157,0.33867 -0.04657,0 0.05325,-0.1524 0.221823,-0.33867 z m 321.974513,-0.127 -0.41051,-0.46567 0.46566,0.41052 c 0.25612,0.22578 0.46567,0.43533 0.46567,0.46567 0,0.1328 -0.13713,0.0247 -0.52082,-0.41052 z m -4.40266,-4.40267 -0.41052,-0.46566 0.46567,0.41051 c 0.43523,0.38369 0.54332,0.52082 0.41051,0.52082 -0.0303,0 -0.23988,-0.20955 -0.46566,-0.46567 z m -312.915186,-0.127 c 0.218736,-0.23283 0.435801,-0.42333 0.482368,-0.42333 0.04657,0 -0.0943,0.1905 -0.313035,0.42333 -0.218736,0.23284 -0.435801,0.42334 -0.482368,0.42334 -0.04657,0 0.0943,-0.1905 0.313035,-0.42334 z m 145.033996,-1.27 c 0.16858,-0.18626 0.3446,-0.33866 0.39116,-0.33866 0.0466,0 -0.0533,0.1524 -0.22182,0.33866 -0.16857,0.18627 -0.3446,0.33867 -0.39116,0.33867 -0.0466,0 0.0532,-0.1524 0.22182,-0.33867 z m 22.75373,0.0423 c -0.21062,-0.26858 -0.20464,-0.27457 0.0639,-0.0639 0.16298,0.12782 0.29633,0.26117 0.29633,0.29634 0,0.13936 -0.13905,0.0497 -0.36027,-0.2324 z m -21.56839,-1.22767 c 0.16857,-0.18627 0.34459,-0.33867 0.39116,-0.33867 0.0466,0 -0.0533,0.1524 -0.22183,0.33867 -0.16857,0.18627 -0.34459,0.33867 -0.39116,0.33867 -0.0466,0 0.0533,-0.1524 0.22183,-0.33867 z m 20.21372,-0.127 c -0.21061,-0.26857 -0.20464,-0.27456 0.0639,-0.0639 0.16299,0.12782 0.29634,0.26117 0.29634,0.29633 0,0.13937 -0.13906,0.0497 -0.36028,-0.2324 z m -29.44239,-23.1356 c 0,-0.0352 0.13335,-0.16851 0.29633,-0.29634 0.26858,-0.21062 0.27456,-0.20463 0.0639,0.0639 -0.22121,0.28207 -0.36027,0.37177 -0.36027,0.2324 z"
         id="path308" /><path
         style="fill:#000000;fill-opacity:1;stroke-width:0.169333"
         d="m 121.00956,666.57389 c 0.21063,-0.0405 0.51543,-0.039 0.67733,0.003 0.16188,0.0424 -0.0105,0.0755 -0.38298,0.0737 -0.37254,-0.002 -0.50501,-0.0366 -0.29435,-0.0771 z m 18.45733,0 c 0.21063,-0.0405 0.51543,-0.039 0.67733,0.003 0.16188,0.0424 -0.0105,0.0755 -0.38298,0.0737 -0.37253,-0.002 -0.505,-0.0366 -0.29435,-0.0771 z m -22.7741,-0.16692 c 0.16476,-0.0429 0.39336,-0.0401 0.508,0.006 0.11466,0.0464 -0.0202,0.0815 -0.29955,0.0781 -0.2794,-0.003 -0.37319,-0.0414 -0.20845,-0.0843 z m 27.26267,0 c 0.16476,-0.0429 0.39336,-0.0401 0.508,0.006 0.11465,0.0464 -0.0202,0.0815 -0.29955,0.0781 -0.2794,-0.003 -0.3732,-0.0414 -0.20845,-0.0843 z m -30.56789,-0.16413 c 0.11642,-0.047 0.30692,-0.047 0.42334,0 0.11641,0.047 0.0212,0.0854 -0.21167,0.0854 -0.23283,0 -0.32808,-0.0384 -0.21167,-0.0854 z m 33.86667,0 c 0.11642,-0.047 0.30692,-0.047 0.42333,0 0.11642,0.047 0.0212,0.0854 -0.21166,0.0854 -0.23284,0 -0.32809,-0.0384 -0.21167,-0.0854 z m -36.56542,-0.17286 c 0.12225,-0.0489 0.2683,-0.0429 0.32457,0.0134 0.0563,0.0563 -0.0438,0.0963 -0.22225,0.089 -0.19728,-0.008 -0.23739,-0.0483 -0.10232,-0.10231 z m 39.45467,0 c 0.12224,-0.0489 0.26829,-0.0429 0.32456,0.0134 0.0563,0.0563 -0.0438,0.0963 -0.22225,0.089 -0.19727,-0.008 -0.23739,-0.0483 -0.10231,-0.10231 z m 2.37067,-0.16933 c 0.12224,-0.0489 0.26829,-0.0429 0.32456,0.0134 0.0563,0.0563 -0.0438,0.0963 -0.22225,0.0889 -0.19727,-0.008 -0.23739,-0.0483 -0.10231,-0.10231 z m -38.94667,-13.54667 c 0.12224,-0.0489 0.26829,-0.0429 0.32456,0.0134 0.0563,0.0563 -0.0438,0.0963 -0.22225,0.089 -0.19727,-0.008 -0.23739,-0.0483 -0.10231,-0.10231 z m 33.69733,0 c 0.12225,-0.0489 0.2683,-0.0429 0.32457,0.0134 0.0563,0.0563 -0.0438,0.0963 -0.22225,0.089 -0.19728,-0.008 -0.23739,-0.0483 -0.10232,-0.10231 z m -35.89866,-0.16933 c 0.12224,-0.0489 0.26829,-0.0429 0.32456,0.0134 0.0563,0.0563 -0.0438,0.0963 -0.22225,0.0889 -0.19727,-0.008 -0.23739,-0.0483 -0.10231,-0.10231 z m 38.1,0 c 0.12224,-0.0489 0.26829,-0.0429 0.32456,0.0134 0.0563,0.0563 -0.0438,0.0963 -0.22225,0.0889 -0.19727,-0.008 -0.23739,-0.0483 -0.10231,-0.10231 z M 84.995276,568.21221 c 0.0081,-0.19727 0.04825,-0.23738 0.102305,-0.10231 0.04891,0.12225 0.0429,0.2683 -0.01336,0.32456 -0.05627,0.0563 -0.09629,-0.0437 -0.08894,-0.22225 z m -0.169333,-2.37066 c 0.0081,-0.19728 0.04825,-0.23739 0.102304,-0.10231 0.04892,0.12224 0.0429,0.26829 -0.01336,0.32456 -0.05627,0.0563 -0.09629,-0.0438 -0.08894,-0.22225 z m 91.270657,0 c 0.008,-0.19728 0.0483,-0.23739 0.10231,-0.10231 0.0489,0.12224 0.0429,0.26829 -0.0134,0.32456 -0.0563,0.0563 -0.0963,-0.0438 -0.089,-0.22225 z m -91.426623,-2.7799 c 0,-0.23283 0.03843,-0.32808 0.08541,-0.21166 0.04698,0.11641 0.04698,0.30691 0,0.42333 -0.04698,0.11642 -0.08541,0.0212 -0.08541,-0.21167 z m 91.609333,0 c 0,-0.23283 0.0384,-0.32808 0.0854,-0.21166 0.047,0.11641 0.047,0.30691 0,0.42333 -0.047,0.11642 -0.0854,0.0212 -0.0854,-0.21167 z m -91.766117,-3.556 c 0,-0.32596 0.03485,-0.45931 0.07744,-0.29633 0.04259,0.16298 0.04259,0.42968 0,0.59267 -0.04259,0.16298 -0.07744,0.0296 -0.07744,-0.29634 z m 91.947997,0 c 0,-0.32596 0.0349,-0.45931 0.0774,-0.29633 0.0426,0.16298 0.0426,0.42968 0,0.59267 -0.0426,0.16298 -0.0774,0.0296 -0.0774,-0.29634 z m -92.099684,-5.92666 c 0,-0.6985 0.02989,-0.98425 0.06642,-0.635 0.03653,0.34925 0.03653,0.92075 0,1.27 -0.03653,0.34925 -0.06642,0.0635 -0.06642,-0.635 z m 92.285294,0.0847 c 0,-0.65193 0.0314,-0.89789 0.068,-0.54655 0.0367,0.35133 0.036,0.88473 -0.002,1.18533 -0.0374,0.3006 -0.0674,0.0132 -0.0667,-0.63878 z m -17.48353,-0.18344 c 0.008,-0.19727 0.0483,-0.23738 0.10231,-0.10231 0.0489,0.12225 0.0429,0.2683 -0.0134,0.32456 -0.0563,0.0563 -0.0963,-0.0437 -0.0889,-0.22225 z m -57.40399,-0.16933 c 0.008,-0.19727 0.0482,-0.23739 0.1023,-0.10231 0.0489,0.12224 0.0429,0.26829 -0.0134,0.32456 -0.0563,0.0563 -0.0963,-0.0438 -0.0889,-0.22225 z m 57.5867,-2.77989 c 0,-0.23284 0.0384,-0.32809 0.0854,-0.21167 0.047,0.11642 0.047,0.30692 0,0.42333 -0.047,0.11642 -0.0854,0.0212 -0.0854,-0.21166 z m -57.73639,-0.254 c 0.003,-0.2794 0.0414,-0.3732 0.0843,-0.20845 0.0429,0.16476 0.0401,0.39336 -0.006,0.508 -0.0464,0.11465 -0.0815,-0.0202 -0.0781,-0.29955 z m -159.870314,-0.35278 c 0.0081,-0.19727 0.04825,-0.23738 0.102305,-0.10231 0.04892,0.12225 0.0429,0.2683 -0.01337,0.32456 -0.05627,0.0563 -0.09629,-0.0438 -0.08894,-0.22225 z m 377.443994,0 c 0.008,-0.19727 0.0483,-0.23738 0.10231,-0.10231 0.0489,0.12225 0.0429,0.2683 -0.0134,0.32456 -0.0563,0.0563 -0.0963,-0.0438 -0.089,-0.22225 z m -377.561442,-5.31989 c 0,-1.16417 0.02705,-1.64042 0.06012,-1.05833 0.03307,0.58208 0.03307,1.53458 0,2.11666 -0.03307,0.58209 -0.06012,0.10584 -0.06012,-1.05833 z m 27.718782,1.76389 c 0.0081,-0.19727 0.04825,-0.23738 0.102304,-0.10231 0.04892,0.12225 0.0429,0.2683 -0.01336,0.32456 -0.05627,0.0563 -0.09629,-0.0438 -0.08894,-0.22225 z m 190.19409,-0.40922 c 0,-0.4191 0.033,-0.59055 0.0734,-0.381 0.0404,0.20955 0.0404,0.55245 0,0.762 -0.0403,0.20955 -0.0734,0.0381 -0.0734,-0.381 z m 132.04723,0.40922 c 0.008,-0.19727 0.0483,-0.23738 0.10232,-0.10231 0.0489,0.12225 0.0429,0.2683 -0.0134,0.32456 -0.0563,0.0563 -0.0963,-0.0438 -0.0889,-0.22225 z m 27.82257,-1.76389 c 0,-1.16417 0.027,-1.64042 0.0601,-1.05833 0.0331,0.58208 0.0331,1.53458 0,2.11666 -0.0331,0.58209 -0.0601,0.10584 -0.0601,-1.05833 z m -193.81925,1.73763 c 0.49208,-0.0343 1.25408,-0.034 1.69333,0 0.43927,0.0348 0.0367,0.0628 -0.89467,0.0624 -0.93134,0 -1.29073,-0.0289 -0.79866,-0.0632 z m 8.29733,0 c 0.49208,-0.0343 1.25408,-0.034 1.69333,0 0.43927,0.0348 0.0367,0.0628 -0.89467,0.0624 -0.93133,0 -1.29073,-0.0289 -0.79866,-0.0632 z m -15.07436,-0.16407 c 0.21064,-0.0405 0.51544,-0.039 0.67734,0.003 0.16188,0.0424 -0.0105,0.0755 -0.38299,0.0736 -0.37253,-0.002 -0.505,-0.0366 -0.29435,-0.0771 z m 22.86,0 c 0.21064,-0.0405 0.51544,-0.039 0.67734,0.003 0.16188,0.0424 -0.0105,0.0755 -0.38299,0.0736 -0.37253,-0.002 -0.505,-0.0366 -0.29435,-0.0771 z m -57.306714,-1.23489 c 0,-0.6985 0.02989,-0.98425 0.06642,-0.635 0.03653,0.34925 0.03653,0.92075 0,1.27 -0.03653,0.34925 -0.06642,0.0635 -0.06642,-0.635 z m 17.078744,0.762 c 0.003,-0.2794 0.0414,-0.3732 0.0843,-0.20845 0.0429,0.16476 0.0401,0.39336 -0.006,0.508 -0.0464,0.11465 -0.0815,-0.0202 -0.0781,-0.29955 z m 13.38987,0.30598 c 0.16477,-0.0429 0.39337,-0.0401 0.508,0.006 0.11466,0.0464 -0.0202,0.0815 -0.29955,0.0781 -0.2794,-0.003 -0.37319,-0.0414 -0.20845,-0.0843 z m 31.06945,0.005 c 0.11642,-0.047 0.30692,-0.047 0.42334,0 0.11641,0.047 0.0212,0.0854 -0.21167,0.0854 -0.23283,0 -0.32808,-0.0384 -0.21167,-0.0854 z m -34.37466,-0.16933 c 0.11641,-0.047 0.30691,-0.047 0.42333,0 0.11642,0.047 0.0212,0.0854 -0.21167,0.0854 -0.23283,0 -0.32808,-0.0384 -0.21166,-0.0854 z m 37.592,0 c 0.11641,-0.047 0.30691,-0.047 0.42333,0 0.11642,0.047 0.0212,0.0854 -0.21167,0.0854 -0.23283,0 -0.32808,-0.0384 -0.21166,-0.0854 z m -40.12142,-0.17286 c 0.12224,-0.0489 0.26829,-0.0429 0.32456,0.0134 0.0563,0.0563 -0.0437,0.0963 -0.22225,0.0889 -0.19727,-0.008 -0.23739,-0.0483 -0.10231,-0.10231 z m 42.84133,0 c 0.12225,-0.0489 0.2683,-0.0429 0.32457,0.0134 0.0563,0.0563 -0.0438,0.0963 -0.22225,0.0889 -0.19728,-0.008 -0.23739,-0.0483 -0.10232,-0.10231 z m -45.38133,-0.16933 c 0.12224,-0.0489 0.26829,-0.0429 0.32456,0.0134 0.0563,0.0563 -0.0438,0.0963 -0.22225,0.0889 -0.19727,-0.008 -0.23739,-0.0483 -0.10231,-0.10231 z m 47.92133,0 c 0.12225,-0.0489 0.2683,-0.0429 0.32457,0.0134 0.0563,0.0563 -0.0438,0.0963 -0.22225,0.0889 -0.19728,-0.008 -0.23739,-0.0483 -0.10232,-0.10231 z m 22.26998,-0.985 c 0,-0.65193 0.0314,-0.89789 0.068,-0.54655 0.0367,0.35133 0.036,0.88473 -0.002,1.18533 -0.0374,0.3006 -0.0674,0.0132 -0.0667,-0.63878 z m -207.455881,-0.84666 c 0.0035,-0.2794 0.0414,-0.3732 0.08433,-0.20845 0.04293,0.16476 0.04011,0.39336 -0.0063,0.508 -0.04639,0.11465 -0.08151,-0.0201 -0.07806,-0.29955 z m 322.573731,-0.0847 c 0,-0.23283 0.0384,-0.32808 0.0854,-0.21167 0.047,0.11642 0.047,0.30692 0,0.42334 -0.047,0.11641 -0.0854,0.0212 -0.0854,-0.21167 z m -350.025374,-4.33211 c 0.0081,-0.19727 0.04825,-0.23738 0.102305,-0.10231 0.04892,0.12224 0.0429,0.26829 -0.01337,0.32456 -0.05627,0.0563 -0.09629,-0.0438 -0.08894,-0.22225 z m 377.443994,0 c 0.008,-0.19727 0.0483,-0.23738 0.10231,-0.10231 0.0489,0.12224 0.0429,0.26829 -0.0134,0.32456 -0.0563,0.0563 -0.0963,-0.0438 -0.089,-0.22225 z M -30.809081,536.5608 c 0.0035,-0.2794 0.0414,-0.3732 0.08433,-0.20845 0.04293,0.16476 0.04011,0.39336 -0.0063,0.508 -0.04639,0.11465 -0.08151,-0.0202 -0.07806,-0.29955 z m 322.579991,0 c 0.003,-0.2794 0.0414,-0.3732 0.0843,-0.20845 0.0429,0.16476 0.0401,0.39336 -0.006,0.508 -0.0464,0.11465 -0.0815,-0.0202 -0.0781,-0.29955 z M 128.37357,516.19913 c 1.18745,-0.0291 3.13055,-0.0291 4.318,0 1.18745,0.0291 0.2159,0.0529 -2.159,0.0529 -2.3749,0 -3.34645,-0.0238 -2.159,-0.0529 z m -8.54935,-0.16257 c 0.21064,-0.0405 0.51544,-0.039 0.67734,0.003 0.16188,0.0424 -0.0105,0.0755 -0.38299,0.0736 -0.37253,-0.002 -0.505,-0.0366 -0.29435,-0.0771 z m 20.828,0 c 0.21064,-0.0405 0.51544,-0.039 0.67734,0.003 0.16188,0.0424 -0.0105,0.0755 -0.38299,0.0736 -0.37253,-0.002 -0.505,-0.0366 -0.29435,-0.0771 z m -24.89398,-0.16172 c 0.11642,-0.047 0.30692,-0.047 0.42333,0 0.11642,0.047 0.0212,0.0854 -0.21166,0.0854 -0.23284,0 -0.32809,-0.0384 -0.21167,-0.0854 z m 29.12533,0 c 0.11642,-0.047 0.30692,-0.047 0.42334,0 0.11641,0.047 0.0212,0.0854 -0.21167,0.0854 -0.23283,0 -0.32808,-0.0384 -0.21167,-0.0854 z m -32.34266,-0.16933 c 0.11641,-0.047 0.30691,-0.047 0.42333,0 0.11642,0.047 0.0212,0.0854 -0.21167,0.0854 -0.23283,0 -0.32808,-0.0384 -0.21166,-0.0854 z m 35.56,0 c 0.11641,-0.047 0.30691,-0.047 0.42333,0 0.11642,0.047 0.0212,0.0854 -0.21167,0.0854 -0.23283,0 -0.32808,-0.0384 -0.21166,-0.0854 z m -38.08942,-0.17286 c 0.12224,-0.0489 0.26829,-0.0429 0.32456,0.0134 0.0563,0.0563 -0.0438,0.0963 -0.22225,0.0889 -0.19727,-0.008 -0.23739,-0.0483 -0.10231,-0.1023 z m 40.80933,0 c 0.12225,-0.0489 0.2683,-0.0429 0.32457,0.0134 0.0563,0.0563 -0.0438,0.0963 -0.22225,0.0889 -0.19728,-0.008 -0.23739,-0.0483 -0.10232,-0.1023 z m -43.18,-0.16934 c 0.12224,-0.0489 0.26829,-0.0429 0.32456,0.0134 0.0563,0.0563 -0.0438,0.0963 -0.22225,0.0889 -0.19726,-0.008 -0.23739,-0.0482 -0.10231,-0.1023 z m 45.55067,0 c 0.12224,-0.0489 0.26829,-0.0429 0.32456,0.0134 0.0563,0.0563 -0.0438,0.0963 -0.22225,0.0889 -0.19727,-0.008 -0.23739,-0.0482 -0.10231,-0.1023 z M 21.677977,478.22565 c 0,-0.23283 0.03843,-0.32808 0.08541,-0.21166 0.04697,0.11641 0.04697,0.30691 0,0.42333 -0.04698,0.11642 -0.08541,0.0212 -0.08541,-0.21167 z m 217.579953,0.0706 c 0.008,-0.19727 0.0483,-0.23739 0.10232,-0.10231 0.0489,0.12224 0.0429,0.26829 -0.0134,0.32456 -0.0563,0.0563 -0.0963,-0.0437 -0.0889,-0.22225 z m -217.579953,-1.5946 c 0,-0.23283 0.03843,-0.32808 0.08541,-0.21166 0.04697,0.11641 0.04697,0.30691 0,0.42333 -0.04698,0.11642 -0.08541,0.0212 -0.08541,-0.21167 z m 217.579953,-0.0988 c 0.008,-0.19726 0.0483,-0.23738 0.10232,-0.1023 0.0489,0.12224 0.0429,0.26829 -0.0134,0.32455 -0.0563,0.0563 -0.0963,-0.0437 -0.0889,-0.22225 z M 110.35016,439.33264 c 0.12224,-0.0489 0.26829,-0.0429 0.32456,0.0134 0.0563,0.0563 -0.0438,0.0963 -0.22225,0.0889 -0.19727,-0.008 -0.23739,-0.0482 -0.10231,-0.1023 z m 40.30133,0 c 0.12224,-0.0489 0.26829,-0.0429 0.32456,0.0134 0.0563,0.0563 -0.0437,0.0963 -0.22225,0.0889 -0.19727,-0.008 -0.23739,-0.0482 -0.10231,-0.1023 z m -37.77192,-0.1658 c 0.11642,-0.047 0.30692,-0.047 0.42334,0 0.11641,0.047 0.0212,0.0854 -0.21167,0.0854 -0.23283,0 -0.32808,-0.0384 -0.21167,-0.0854 z m 34.88267,0 c 0.11642,-0.047 0.30692,-0.047 0.42333,0 0.11642,0.047 0.0212,0.0854 -0.21166,0.0854 -0.23284,0 -0.32809,-0.0384 -0.21167,-0.0854 z m -31.57745,-0.17453 c 0.16476,-0.0429 0.39336,-0.0401 0.508,0.006 0.11466,0.0464 -0.0202,0.0815 -0.29955,0.0781 -0.2794,-0.003 -0.37319,-0.0414 -0.20845,-0.0843 z m 28.27867,0 c 0.16476,-0.0429 0.39336,-0.0401 0.508,0.006 0.11465,0.0464 -0.0202,0.0815 -0.29955,0.0781 -0.2794,-0.003 -0.3732,-0.0414 -0.20845,-0.0843 z m -23.9619,-0.17175 c 0.21063,-0.0405 0.51543,-0.039 0.67733,0.003 0.16188,0.0424 -0.0105,0.0755 -0.38298,0.0736 -0.37254,-0.002 -0.50501,-0.0366 -0.29435,-0.0771 z m 19.47135,3.3e-4 c 0.20955,-0.0404 0.55245,-0.0404 0.762,0 0.20955,0.0404 0.0381,0.0734 -0.381,0.0734 -0.4191,0 -0.59055,-0.033 -0.381,-0.0734 z m -10.58334,-0.17539 c 0.62865,-0.0326 1.65735,-0.0326 2.286,0 0.62865,0.0326 0.1143,0.0592 -1.143,0.0592 -1.2573,0 -1.77165,-0.0266 -1.143,-0.0592 z m -26.65941,-14.38352 c 0.12223,-0.0489 0.26829,-0.0429 0.32455,0.0134 0.0563,0.0563 -0.0437,0.0963 -0.22225,0.0889 -0.19726,-0.008 -0.23738,-0.0482 -0.1023,-0.10231 z m 55.372,0 c 0.12224,-0.0489 0.26829,-0.0429 0.32456,0.0134 0.0563,0.0563 -0.0438,0.0963 -0.22225,0.0889 -0.19727,-0.008 -0.23739,-0.0482 -0.10231,-0.10231 z m -2.032,-0.16934 c 0.12224,-0.0489 0.26829,-0.0429 0.32456,0.0134 0.0563,0.0563 -0.0438,0.0963 -0.22225,0.0889 -0.19727,-0.008 -0.23739,-0.0482 -0.10231,-0.1023 z m -46.56667,-0.33866 c 0.12224,-0.0489 0.26829,-0.0429 0.32456,0.0134 0.0563,0.0563 -0.0438,0.0963 -0.22225,0.0889 -0.19727,-0.008 -0.23739,-0.0483 -0.10231,-0.10231 z m 41.82533,0 c 0.12225,-0.0489 0.2683,-0.0429 0.32457,0.0134 0.0563,0.0563 -0.0438,0.0963 -0.22225,0.0889 -0.19728,-0.008 -0.23739,-0.0483 -0.10232,-0.10231 z m -38.95725,-0.16581 c 0.11642,-0.047 0.30692,-0.047 0.42334,0 0.11641,0.047 0.0212,0.0854 -0.21167,0.0854 -0.23283,0 -0.32808,-0.0384 -0.21167,-0.0854 z m 35.89867,0 c 0.11642,-0.047 0.30692,-0.047 0.42333,0 0.11642,0.047 0.0212,0.0854 -0.21166,0.0854 -0.23284,0 -0.32809,-0.0384 -0.21167,-0.0854 z m -32.42412,-0.17453 c 0.16477,-0.0429 0.39337,-0.0401 0.508,0.006 0.11466,0.0464 -0.0202,0.0815 -0.29955,0.0781 -0.2794,-0.003 -0.37319,-0.0414 -0.20845,-0.0843 z m 28.956,0 c 0.16477,-0.0429 0.39337,-0.0401 0.508,0.006 0.11466,0.0464 -0.0202,0.0815 -0.29955,0.0781 -0.2794,-0.003 -0.37319,-0.0414 -0.20845,-0.0843 z m -24.4699,-0.17175 c 0.21064,-0.0405 0.51544,-0.039 0.67734,0.003 0.16188,0.0424 -0.0105,0.0755 -0.38299,0.0736 -0.37253,-0.002 -0.505,-0.0366 -0.29435,-0.0771 z m 19.81002,3.4e-4 c 0.20955,-0.0404 0.55245,-0.0404 0.762,0 0.20955,0.0404 0.0381,0.0734 -0.381,0.0734 -0.4191,0 -0.59055,-0.033 -0.381,-0.0734 z"
         id="path306" /><path
         style="fill:#000000;fill-opacity:1;stroke-width:0.169333"
         d="m 120.79591,666.5917 c -0.65194,-0.0315 -2.89984,-0.13858 -4.99534,-0.23791 -52.29009,-2.47891 -101.282311,-19.46546 -134.026254,-46.46954 -7.272328,-5.99752 -14.740633,-13.60026 -20.024241,-20.38469 -10.065863,-12.92508 -16.706794,-27.49514 -19.000756,-41.68724 -0.714421,-4.41992 -0.877189,-6.3647 -0.970803,-11.59933 -0.127681,-7.13949 0.217306,-11.24255 1.473592,-17.526 4.967384,-24.84491 21.383136,-47.74727 47.580466,-66.38166 19.407603,-13.80481 44.287022,-24.90859 69.978102,-31.2315 17.950749,-4.41791 36.72574,-6.90338 58.376564,-7.728 5.8135,-0.22142 22.32396,-0.11661 27.51667,0.17467 32.20483,1.80655 57.45095,6.93613 82.12666,16.68676 41.96795,16.58367 72.3473,43.03459 84.58072,73.64336 3.19669,7.99835 5.06577,16.00424 5.77641,24.74237 0.25361,3.11842 0.097,12.13598 -0.26029,14.986 -0.97218,7.75494 -2.77174,14.81627 -5.5453,21.75933 -1.28417,3.21466 -4.26166,9.27884 -6.06938,12.36133 -24.47221,41.72973 -81.92484,71.55629 -149.85616,77.79792 -3.74895,0.34446 -6.76612,0.56833 -11.76866,0.87325 -2.74146,0.16708 -22.39676,0.3415 -24.892,0.22088 z m -4.91094,-14.39447 c -1.90056,-1.37448 -5.41022,-4.99298 -7.59844,-7.83409 -8.313942,-10.79452 -15.210693,-27.9071 -19.307137,-47.90585 -3.039492,-14.83873 -4.515434,-29.85486 -4.568234,-46.47687 l -0.02192,-6.90059 -0.508,-0.0841 c -0.2794,-0.0462 -2.3749,-0.39221 -4.656667,-0.76879 -37.324052,-6.15985 -67.697125,-19.66339 -80.7107826,-35.88312 -5.4824749,-6.83315 -7.9769513,-13.64287 -7.6267852,-20.82051 l 0.1040587,-2.13298 -0.5067215,0.59267 c -1.1762774,1.37578 -4.6240874,6.00985 -6.0473424,8.128 -7.959997,11.84639 -13.007192,24.9504 -14.674755,38.1 -0.943793,7.44228 -0.730736,16.07701 0.582857,23.622 5.496594,31.57116 30.05110779,60.23352 67.308138,78.56848 20.598231,10.13682 43.802972,16.68479 68.410671,19.30429 4.39808,0.46817 9.93903,0.90957 10.07506,0.80259 0.0464,-0.0365 -0.0679,-0.17652 -0.254,-0.31112 z m 32.6816,0.10008 c 6.54689,-0.47024 15.59655,-1.6341 22.51011,-2.89499 43.8417,-7.9958 80.81105,-28.46621 102.1071,-56.538 14.66671,-19.33321 20.91839,-41.26194 18.03087,-63.246 -1.68707,-12.84442 -6.73305,-25.8195 -14.58651,-37.50733 -1.46609,-2.18191 -4.94871,-6.87122 -6.03644,-8.128 l -0.51295,-0.59267 0.10172,2.13298 c 0.87217,18.28811 -17.3311,35.32176 -50.34988,47.11474 -11.52835,4.11746 -26.54635,7.85073 -39.93735,9.9279 -1.21073,0.1878 -2.45371,0.3847 -2.76216,0.43757 l -0.56084,0.0961 0.11358,2.99601 c 0.20027,5.28401 -0.32006,18.45432 -1.03157,26.11003 -2.32952,25.0655 -8.40215,47.59193 -17.01033,63.09985 -1.77635,3.20015 -4.78251,7.73837 -6.71345,10.13487 -1.65932,2.0594 -4.75224,5.2234 -6.11913,6.25975 -0.48589,0.36838 -0.88343,0.71503 -0.88343,0.77033 0,0.0553 0.24765,0.08 0.55033,0.0549 0.30268,-0.0251 1.69333,-0.12773 3.09033,-0.22806 z m -14.08519,-38.72767 c 8.47305,-2.96406 15.89638,-14.83055 20.52665,-32.81265 2.49455,-9.6879 3.95802,-20.0522 4.46942,-31.65276 0.09,-2.042 0.12014,-3.78319 0.0669,-3.86928 -0.0532,-0.0861 -0.48758,-0.1109 -0.96527,-0.0551 -0.47769,0.0558 -2.46873,0.21451 -4.42453,0.35271 -15.90832,1.12413 -31.65774,1.12078 -47.32866,-0.01 -2.00237,-0.1445 -4.02167,-0.27685 -4.48734,-0.29412 l -0.84666,-0.0314 0.0506,2.11667 c 0.22558,9.43415 1.53643,20.35639 3.50568,29.21 4.68304,21.05471 12.92387,34.72258 22.52104,37.35248 0.9448,0.25889 1.61485,0.31377 3.302,0.27039 1.84575,-0.0475 2.30783,-0.12129 3.61014,-0.57688 z m 3.92519,-97.41633 c 8.04677,-0.23264 18.79018,-0.89206 19.09635,-1.17211 0.0721,-0.0659 -0.13423,-1.56684 -0.45842,-3.33541 -4.39002,-23.94967 -13.44151,-40.02989 -23.92179,-42.49771 -1.58565,-0.37337 -4.62,-0.24031 -6.14614,0.26952 -2.68163,0.89584 -4.87605,2.3238 -7.28172,4.73835 -6.93469,6.96031 -12.53215,20.34842 -15.67421,37.48984 -0.32418,1.76857 -0.53047,3.2695 -0.45841,3.33541 0.28408,0.25985 11.44747,0.96807 18.33434,1.16316 6.72689,0.19055 10.16397,0.19241 16.51,0.009 z m -50.986112,-6.13532 c 1.616979,-10.17789 4.659488,-22.35825 7.687561,-30.77634 7.918241,-22.01283 18.628451,-35.43039 30.688501,-38.44601 2.01675,-0.50428 5.95585,-0.63568 8.06103,-0.26889 12.2214,2.12935 23.20985,15.00975 31.4019,36.80857 3.46077,9.20897 6.61477,21.50031 8.38651,32.68267 0.37407,2.36104 0.51433,2.921 0.73167,2.921 0.14788,0 1.80357,-0.26588 3.67929,-0.59085 23.02768,-3.98944 41.62984,-10.85834 51.99555,-19.1995 2.10361,-1.69275 4.94932,-4.64198 6.11383,-6.33626 1.16831,-1.6998 2.28121,-4.06846 2.76143,-5.87739 0.53642,-2.02054 0.53594,-4.9256 -0.002,-6.94267 -1.38528,-5.20278 -5.69578,-10.33889 -12.39957,-14.77452 -15.90714,-10.52511 -43.81469,-17.77034 -76.77514,-19.93199 -8.74769,-0.5737 -23.21157,-0.73742 -31.66533,-0.35842 -23.704073,1.0627 -44.328627,4.45709 -61.457925,10.11475 -17.57777,5.80578 -29.231085,13.43451 -33.276965,21.78445 -1.191749,2.45955 -1.588741,4.11801 -1.588741,6.63706 0,2.49875 0.394057,4.15538 1.570873,6.604 1.061095,2.20784 2.179613,3.75855 4.296571,5.95674 7.068703,7.33996 19.633062,13.54049 37.128179,18.3228 5.352818,1.4632 12.68908,3.05873 19.46134,4.23255 3.044938,0.52778 2.660871,0.83519 3.20055,-2.56175 z"
         id="path304" /></g></g></svg>
